<svg width="154" height="90" viewBox="0 0 154 90" fill="none" xmlns="http://www.w3.org/2000/svg">
<path d="M95.0508 26.8858C94.7763 26.8858 94.504 26.7809 94.2942 26.5711C93.8746 26.1537 93.8746 25.4752 94.2942 25.0579L96.5975 22.7545C96.6489 22.7032 96.7047 22.6541 96.7672 22.6139C98.5237 20.8328 100.477 19.3531 102.575 18.2103C103.099 17.9313 103.744 18.121 104.03 18.6388C104.313 19.1589 104.121 19.8106 103.601 20.0941C101.635 21.1632 99.8026 22.5648 98.1599 24.2566C98.1019 24.3169 98.0371 24.3682 97.9702 24.4128L95.8097 26.5711C95.5999 26.7809 95.3253 26.8858 95.0508 26.8858Z" fill="#0C1737"/>
<path d="M112.274 69.0336C111.683 69.0336 111.203 68.5537 111.203 67.9622C111.203 67.3708 111.683 66.8909 112.274 66.8909H120.079C125.306 66.8039 130.094 64.3331 133.198 60.1081C133.549 59.6305 134.223 59.53 134.696 59.8804C135.171 60.2308 135.274 60.9004 134.924 61.3781C131.422 66.1455 126.016 68.9376 120.095 69.0336H112.274Z" fill="#0C1737"/>
<path d="M134.035 29.3322C133.658 29.3322 133.294 29.1336 133.098 28.7809C127.25 18.2975 114.019 14.3984 103.598 20.0831C101.616 21.1723 99.7841 22.5784 98.1547 24.259C97.541 24.8907 96.3022 24.3929 96.3022 23.5136C96.3022 23.1542 96.4741 22.8373 96.7397 22.6409C98.4895 20.862 100.449 19.3711 102.57 18.206C114.028 11.9522 128.556 16.233 134.97 27.7386C135.258 28.2542 135.073 28.9059 134.555 29.196C134.39 29.2876 134.212 29.3322 134.035 29.3322Z" fill="#0C1737"/>
<path d="M125.239 48.2878C120.686 48.2878 116.289 46.6518 112.856 43.6811C112.517 43.3932 112.189 43.0785 111.859 42.7504C110.546 41.4224 109.504 40.0207 108.658 38.4874C108.361 37.9294 108.091 37.3893 107.837 36.8112C107.645 36.3604 107.46 35.9028 107.323 35.4297C107.317 35.414 107.312 35.4006 107.308 35.3939C106.638 33.4053 106.321 31.4144 106.321 29.3722C106.321 28.995 106.321 28.6558 106.357 28.2786C106.353 28.1759 106.368 27.9683 106.388 27.7585C106.44 27.1871 106.953 26.8077 107.502 26.7698C108.073 26.7966 108.526 27.2563 108.526 27.8299V27.8456C108.509 28.0888 108.495 28.2339 108.495 28.3656C108.462 28.7919 108.462 29.0642 108.462 29.3722C108.462 31.1845 108.745 32.9477 109.301 34.6128C109.479 35.1819 109.642 35.5792 109.805 35.9586C110.033 36.4764 110.281 36.9719 110.544 37.4674C111.285 38.8133 112.209 40.0564 113.283 41.1456C113.662 41.525 113.948 41.7951 114.251 42.054C117.3 44.6944 121.202 46.1474 125.239 46.1474C125.831 46.1474 126.31 46.6272 126.31 47.2187C126.31 47.8101 125.831 48.2878 125.239 48.2878Z" fill="#0C1737"/>
<path d="M98.9248 37.4362C98.6503 37.4362 98.3758 37.3313 98.1682 37.1215C97.7486 36.7019 97.7486 36.0256 98.1682 35.6082L106.694 27.0823C107.114 26.6627 107.792 26.6627 108.207 27.0823C108.627 27.5019 108.627 28.1782 108.207 28.5955L99.6815 37.1215C99.4717 37.3313 99.1971 37.4362 98.9248 37.4362Z" fill="#0C1737"/>
<path d="M142.519 64.8777H137.557C135.258 64.8777 133.301 63.1591 133.002 60.8825C132.982 60.6638 132.966 60.4651 132.966 60.2844V27.8589C132.966 25.3257 135.026 23.2656 137.56 23.2656H142.521C145.054 23.2656 147.115 25.3257 147.115 27.8589V60.2866C147.11 62.8198 145.052 64.8777 142.519 64.8777ZM137.555 25.406C136.205 25.406 135.104 26.5064 135.104 27.8567V60.2844C135.104 60.4004 135.116 60.5276 135.129 60.6415C135.285 61.8177 136.33 62.735 137.557 62.735H142.519C143.869 62.735 144.97 61.6347 144.97 60.2844V27.8589C144.97 26.5086 143.869 25.4083 142.519 25.4083H137.555V25.406Z" fill="#0C1737"/>
<path d="M152.697 61.3648H146.037C145.445 61.3648 144.965 60.885 144.965 60.2935C144.965 59.702 145.445 59.2222 146.037 59.2222H152.697C153.288 59.2222 153.768 59.702 153.768 60.2935C153.768 60.885 153.288 61.3648 152.697 61.3648Z" fill="#0C1737"/>
<path d="M152.697 28.9193H150.422C149.831 28.9193 149.351 28.4394 149.351 27.8479C149.351 27.2565 149.831 26.7766 150.422 26.7766H152.697C153.288 26.7766 153.768 27.2565 153.768 27.8479C153.768 28.4394 153.288 28.9193 152.697 28.9193Z" fill="#0C1737"/>
<path d="M141.615 60.1483C141.329 60.1483 141.062 60.0256 140.865 59.8269C140.669 59.6305 140.542 59.3627 140.542 59.077C140.542 58.7913 140.666 58.5056 140.865 58.3092C141.258 57.9142 141.972 57.9142 142.383 58.3092C142.579 58.5213 142.686 58.7913 142.686 59.077C142.686 59.3627 142.579 59.6305 142.365 59.8269C142.169 60.0434 141.901 60.1483 141.615 60.1483Z" fill="#0C1737"/>
<path d="M129.731 31.1802C129.353 31.1802 128.99 30.9816 128.793 30.6289C127.019 27.4462 124.193 24.9732 120.839 23.6631C120.287 23.4488 120.013 22.8284 120.229 22.2771C120.441 21.7258 121.064 21.449 121.615 21.6678C125.434 23.1565 128.648 25.9687 130.666 29.5866C130.954 30.1022 130.769 30.7539 130.251 31.0441C130.086 31.1334 129.907 31.1802 129.731 31.1802Z" fill="#0C1737"/>
<path d="M91.0326 37.4384H85.8924C83.54 37.4384 81.625 35.5323 81.625 33.1888V28.9928C81.625 26.6492 83.54 24.7432 85.8924 24.7432H95.0523C95.4853 24.7432 95.8759 25.0021 96.041 25.4016C96.2084 25.8011 96.1169 26.2609 95.8134 26.5689L92.1351 30.265C92.1307 30.2672 92.1307 30.2694 92.1284 30.2716C90.6465 31.7403 90.5304 34.0682 91.8606 35.6863C92.124 36.0055 92.1798 36.4474 92.0035 36.8224C91.8249 37.1996 91.4477 37.4384 91.0326 37.4384ZM85.8924 26.8858C84.7207 26.8858 83.7677 27.8322 83.7677 28.995V33.191C83.7677 34.3516 84.7207 35.3002 85.8924 35.3002H89.189C88.3476 33.0794 88.8431 30.5172 90.6197 28.7562L92.4766 26.8881H85.8924V26.8858Z" fill="#0C1737"/>
<path d="M108.427 47.9911H88.3749C86.0202 47.9911 84.1074 46.0761 84.1074 43.7237V39.5433C84.1074 37.202 86.0202 35.2959 88.3749 35.2959H91.0353C91.3478 35.2959 91.6446 35.432 91.8477 35.6686C91.9192 35.7512 91.9884 35.8405 92.0754 35.9119C93.7382 37.5412 96.325 37.4542 97.8137 35.9677L98.1708 35.6106C98.3717 35.4075 98.644 35.2959 98.9274 35.2959H108.427C108.621 35.2959 108.81 35.3472 108.976 35.4477C109.176 35.566 109.397 35.7066 109.596 35.8494C109.75 35.9566 109.873 36.1061 109.951 36.2757C110.141 36.6864 110.346 37.0814 110.554 37.4743C111.259 38.771 112.178 40.0142 113.283 41.1525C113.676 41.5274 113.946 41.7997 114.234 42.0385C114.546 42.2975 114.685 42.7104 114.593 43.1076C113.935 45.9377 111.339 47.9911 108.427 47.9911ZM88.3726 37.4385C87.2009 37.4385 86.2478 38.3827 86.2478 39.5455V43.7259C86.2478 44.8976 87.2009 45.8507 88.3726 45.8507H108.424C110.147 45.8507 111.701 44.7682 112.323 43.2036C112.176 43.063 112.033 42.9202 111.888 42.7773C111.839 42.7416 111.779 42.6858 111.736 42.6434C110.502 41.3712 109.464 39.9696 108.661 38.4876C108.478 38.1394 108.302 37.7979 108.132 37.4519C108.127 37.4475 108.123 37.4452 108.118 37.4408L99.3225 37.4854C97.0325 39.7798 92.9883 39.82 90.6202 37.4921C90.6023 37.4787 90.5845 37.4609 90.5644 37.4408H88.3726V37.4385Z" fill="#0C1737"/>
<path d="M106.061 58.5212H90.8392C88.4935 58.5212 86.5874 56.6152 86.5874 54.2694V50.0868C86.5874 47.741 88.4935 45.835 90.8392 45.835H105.833C109.195 45.835 112.069 48.3481 112.375 51.5576C112.545 53.3432 111.955 55.1242 110.755 56.4433C109.558 57.7646 107.844 58.5212 106.061 58.5212ZM90.8415 47.9776C89.6786 47.9776 88.7323 48.9239 88.7323 50.0868V54.2694C88.7323 55.4322 89.6786 56.3786 90.8415 56.3786H106.063C107.246 56.3786 108.378 55.8764 109.175 55.0015C109.98 54.1154 110.36 52.966 110.246 51.7607C110.043 49.6404 108.108 47.9776 105.838 47.9776H90.8415Z" fill="#0C1737"/>
<path d="M103.795 69.0672H95.4117C95.3537 69.0672 95.2711 69.0605 95.2153 69.0516L93.3226 69.0627C90.9769 69.0627 89.0708 67.1567 89.0708 64.8109V60.6283C89.0708 58.2825 90.9791 56.3765 93.3226 56.3765H102.485C102.487 56.3765 102.487 56.3765 102.489 56.3765L103.574 56.3809C106.933 56.3809 109.805 58.8963 110.113 62.1058C110.283 63.8914 109.694 65.6724 108.493 66.9915C107.288 68.3106 105.578 69.0672 103.795 69.0672ZM93.3204 58.5169C92.1553 58.5169 91.209 59.4632 91.209 60.6261V64.8087C91.209 65.9715 92.1553 66.9179 93.3204 66.9179H95.3626C95.4206 66.9179 95.501 66.9245 95.5568 66.9335L103.795 66.9223C104.978 66.9223 106.112 66.4201 106.906 65.5452C107.712 64.6591 108.091 63.5075 107.977 62.3045C107.774 60.1819 105.839 58.5191 103.569 58.5191L93.3204 58.5169Z" fill="#0C1737"/>
<path d="M59.0229 26.8948C58.7483 26.8948 58.476 26.7899 58.2662 26.5824L56.0722 24.3906C56.012 24.3504 55.9562 24.3058 55.9049 24.2522C54.2778 22.5671 52.4498 21.1677 50.4723 20.0874C49.9523 19.804 49.7604 19.1545 50.046 18.6345C50.3273 18.1144 50.979 17.9202 51.499 18.2082C53.6171 19.3621 55.5745 20.8508 57.3199 22.6296C57.3712 22.6653 57.4203 22.7055 57.465 22.7479L59.7817 25.0646C60.2013 25.4842 60.2013 26.1605 59.7839 26.5801C59.5719 26.7899 59.2974 26.8948 59.0229 26.8948Z" fill="#0C1737"/>
<path d="M41.7897 69.0335H33.9846C28.0455 68.9375 22.6397 66.1454 19.1378 61.378C18.7874 60.9003 18.8901 60.2308 19.3655 59.8804C19.8387 59.5299 20.5127 59.6281 20.8631 60.108C23.9677 64.333 28.7552 66.8038 34.0002 66.8908H41.7874C42.3789 66.8908 42.8588 67.3707 42.8588 67.9622C42.861 68.5536 42.3811 69.0335 41.7897 69.0335Z" fill="#0C1737"/>
<path d="M20.0288 29.332C19.8525 29.332 19.674 29.2873 19.5088 29.1958C18.991 28.9057 18.8057 28.2539 19.0937 27.7384C25.5082 16.2328 40.0403 11.9497 51.4923 18.2036C53.6416 19.3843 55.6214 20.8953 57.3846 22.7009C57.6167 22.8973 57.764 23.1897 57.764 23.5133C57.764 24.1048 57.2975 24.5847 56.7083 24.5847H56.6793C56.3891 24.5847 56.1124 24.4686 55.9093 24.261C54.28 22.5804 52.4453 21.1743 50.4612 20.0829C40.0403 14.3959 26.8072 18.3018 20.964 28.7829C20.7698 29.1333 20.406 29.332 20.0288 29.332Z" fill="#0C1737"/>
<path d="M16.509 64.8777H11.5474C9.01417 64.8777 6.9541 62.8176 6.9541 60.2844V27.8589C6.9541 25.3257 9.01417 23.2656 11.5474 23.2656H16.509C19.0422 23.2656 21.1023 25.3257 21.1023 27.8589V60.2866C21.1023 60.4674 21.0867 60.666 21.071 60.8468C20.7653 63.1613 18.8079 64.8777 16.509 64.8777ZM11.5452 25.406C10.1949 25.406 9.09452 26.5064 9.09452 27.8567V60.2844C9.09452 61.6347 10.1949 62.735 11.5452 62.735H16.5067C17.7321 62.735 18.7789 61.8177 18.9395 60.6035C18.9462 60.5276 18.9596 60.4004 18.9596 60.2844V27.8589C18.9596 26.5086 17.8593 25.4083 16.509 25.4083H11.5452V25.406Z" fill="#0C1737"/>
<path d="M8.02778 61.3648H1.36771C0.776252 61.3648 0.296387 60.885 0.296387 60.2935C0.296387 59.702 0.776252 59.2222 1.36771 59.2222H8.02778C8.61924 59.2222 9.0991 59.702 9.0991 60.2935C9.0991 60.885 8.61924 61.3648 8.02778 61.3648Z" fill="#0C1737"/>
<path d="M3.64204 28.9193H1.36771C0.776252 28.9193 0.296387 28.4394 0.296387 27.8479C0.296387 27.2565 0.776252 26.7766 1.36771 26.7766H3.64204C4.2335 26.7766 4.71337 27.2565 4.71337 27.8479C4.71337 28.4394 4.2335 28.9193 3.64204 28.9193Z" fill="#0C1737"/>
<path d="M12.4495 60.1484C12.1638 60.1484 11.896 60.0412 11.6996 59.827C11.4853 59.6306 11.376 59.3627 11.376 59.077C11.376 58.7913 11.4831 58.5235 11.6795 58.3093C12.0746 57.9142 12.7866 57.8986 13.1972 58.3093C13.3914 58.5213 13.5186 58.7913 13.5186 59.077C13.5186 59.3627 13.3936 59.6306 13.1972 59.827C13.0031 60.0256 12.7174 60.1484 12.4495 60.1484Z" fill="#0C1737"/>
<path d="M68.18 37.4363H66.0887C65.4972 37.4363 65.0173 36.9564 65.0173 36.365C65.0173 35.7735 65.4972 35.2937 66.0887 35.2937H68.18C69.345 35.2937 70.2914 34.3473 70.2914 33.1823V29.0019C70.2914 27.8368 69.345 26.8905 68.18 26.8905H49.8023C49.2108 26.8905 48.731 26.4106 48.731 25.8191C48.731 25.2277 49.2108 24.7478 49.8023 24.7478H68.18C70.5257 24.7478 72.4318 26.6561 72.4318 28.9996V33.18C72.434 35.528 70.5257 37.4363 68.18 37.4363Z" fill="#0C1737"/>
<path d="M65.7005 47.9822H63.607C63.0155 47.9822 62.5356 47.5023 62.5356 46.9109C62.5356 46.3194 63.0155 45.8396 63.607 45.8396H65.7005C66.8633 45.8396 67.8097 44.8932 67.8097 43.7282V39.5455C67.8097 38.3827 66.8633 37.4363 65.7005 37.4363C65.1091 37.4363 64.6292 36.9565 64.6292 36.365C64.6292 35.7736 65.1091 35.2937 65.7005 35.2937C68.0463 35.2937 69.9523 37.1998 69.9523 39.5455V43.7282C69.9501 46.0739 68.044 47.9822 65.7005 47.9822Z" fill="#0C1737"/>
<path d="M63.2237 58.5212H61.1324C60.5409 58.5212 60.061 58.0414 60.061 57.4499C60.061 56.8584 60.5409 56.3786 61.1324 56.3786H63.2237C64.3865 56.3786 65.3328 55.4322 65.3328 54.2694V50.0868C65.3328 48.9239 64.3865 47.9776 63.2237 47.9776C62.6322 47.9776 62.1524 47.4977 62.1524 46.9063C62.1524 46.3148 62.6322 45.835 63.2237 45.835C65.5694 45.835 67.4755 47.741 67.4755 50.0868V54.2694C67.4755 56.6152 65.5694 58.5212 63.2237 58.5212Z" fill="#0C1737"/>
<path d="M41.7901 69.0672C41.1986 69.0672 40.7188 68.5873 40.7188 67.9959C40.7188 67.4044 41.1986 66.9246 41.7901 66.9246L60.7436 66.9201C61.9087 66.9201 62.855 65.9737 62.855 64.8109V60.6283C62.855 59.4655 61.9087 58.5191 60.7436 58.5191C60.1521 58.5191 59.6723 58.0392 59.6723 57.4478C59.6723 56.8563 60.1521 56.3765 60.7436 56.3765C63.0894 56.3765 64.9954 58.2825 64.9954 60.6283V64.8109C64.9954 67.1567 63.0871 69.0627 60.7436 69.0627L41.7901 69.0672Z" fill="#0C1737"/>
<path d="M36.1836 63.7372C36.1791 63.7372 36.1724 63.7372 36.1657 63.7372C31.6394 63.6636 27.5058 61.5321 24.8297 57.8851C24.4793 57.4075 24.582 56.7379 25.0574 56.3875C25.535 56.0326 26.2046 56.1375 26.555 56.6151C28.8316 59.7175 32.3469 61.5321 36.1992 61.5946C36.7906 61.6035 37.2638 62.0923 37.2526 62.6815C37.2437 63.2707 36.7661 63.7372 36.1836 63.7372Z" fill="#0C1737"/>
<path d="M77.0323 6.95256C76.4408 6.95256 75.9609 6.4727 75.9609 5.88124V1.18973C75.9609 0.598271 76.4408 0.118408 77.0323 0.118408C77.6237 0.118408 78.1036 0.598271 78.1036 1.18973V5.88124C78.1036 6.4727 77.6237 6.95256 77.0323 6.95256Z" fill="#0C1737"/>
<path d="M63.4021 11.142C63.0137 11.142 62.6365 10.9277 62.4468 10.555L60.1926 6.12012C59.9247 5.59339 60.1345 4.94836 60.6635 4.68053C61.1858 4.41493 61.833 4.62026 62.1031 5.15146L64.3573 9.5863C64.6252 10.113 64.4154 10.7581 63.8864 11.0259C63.7324 11.1018 63.565 11.142 63.4021 11.142Z" fill="#0C1737"/>
<path d="M90.6625 11.142C90.4995 11.142 90.3322 11.1041 90.1782 11.026C89.6492 10.7581 89.4416 10.1131 89.7072 9.58637L91.9615 5.15153C92.2315 4.62257 92.8788 4.41723 93.4011 4.6806C93.93 4.94843 94.1376 5.59346 93.872 6.12019L91.6177 10.555C91.428 10.9278 91.0508 11.142 90.6625 11.142Z" fill="#0C1737"/>
<path d="M77.0323 89.3107C76.4408 89.3107 75.9609 88.8308 75.9609 88.2393V83.5501C75.9609 82.9586 76.4408 82.4788 77.0323 82.4788C77.6237 82.4788 78.1036 82.9586 78.1036 83.5501V88.2393C78.1036 88.8308 77.6237 89.3107 77.0323 89.3107Z" fill="#0C1737"/>
<path d="M92.9167 84.869C92.5284 84.869 92.1512 84.6548 91.9615 84.282L89.7072 79.8472C89.4394 79.3204 89.6492 78.6754 90.1782 78.4076C90.7004 78.1397 91.3477 78.3473 91.6177 78.8785L93.872 83.3134C94.1398 83.8401 93.93 84.4851 93.4011 84.753C93.2471 84.8311 93.0819 84.869 92.9167 84.869Z" fill="#0C1737"/>
<path d="M61.1469 84.8693C60.9839 84.8693 60.8165 84.8313 60.6625 84.7532C60.1336 84.4854 59.926 83.8403 60.1916 83.3136L62.4458 78.8788C62.7159 78.3476 63.3609 78.1422 63.8854 78.4078C64.4144 78.6757 64.622 79.3207 64.3564 79.8474L62.1021 84.2823C61.9124 84.655 61.5352 84.8693 61.1469 84.8693Z" fill="#0C1737"/>
</svg>
