<svg width="812" height="703" viewBox="0 0 812 703" fill="none" xmlns="http://www.w3.org/2000/svg">
<path d="M480.478 62.1885H390.561V368.154H480.478V62.1885Z" fill="#2F58FF"/>
<path d="M477.951 64.7255V365.617H393.101V64.7255H477.951ZM480.492 62.1885H390.561V368.154H480.492V62.1885Z" fill="white"/>
<path d="M390.561 233.919H455.069C455.069 233.919 437.761 220.841 431.272 222.732C431.272 222.732 414.764 205.188 398.536 209.856C395.801 210.619 393.135 211.603 390.561 212.799V233.919Z" fill="white"/>
<path d="M421.964 254.216V275.21H390.561V368.153H480.492V254.216H421.964Z" fill="white"/>
<path d="M477.951 64.7255V365.617H393.101V64.7255H477.951ZM480.492 62.1885H390.561V368.154H480.492V62.1885Z" fill="white"/>
<path d="M679.272 62.1885H485.672V368.154H679.272V62.1885Z" fill="#2F58FF"/>
<path d="M676.719 64.7255V365.617H488.212V64.7255H676.719ZM679.258 62.1885H485.672V368.154H679.258V62.1885Z" fill="white"/>
<path d="M488.187 209.539H578.521C578.521 209.539 561.214 196.474 554.712 198.35C554.712 198.35 538.204 180.82 521.977 185.476C505.747 190.13 504.072 197.108 504.072 197.108C499.293 194.331 493.889 192.804 488.364 192.668L488.187 209.539Z" fill="white"/>
<path d="M511.678 140.469H633.188C633.188 140.469 615.918 127.39 609.379 129.242C609.379 129.242 592.871 111.698 576.643 116.354C560.414 121.009 558.776 128.05 558.776 128.05C551.108 123.677 542.048 122.427 533.481 124.561C524.43 126.852 516.616 132.552 511.678 140.469Z" fill="white"/>
<path d="M679.258 191.044C675.791 193.847 675.232 196.118 675.232 196.118C667.556 191.754 658.491 190.518 649.925 192.668C640.887 194.968 633.092 200.673 628.173 208.587H679.258V191.044Z" fill="white"/>
<path d="M662.814 275.21V220.574H634.611V261.751H607.767V239.45C570.269 239.45 570.078 259.037 570.078 259.037V307.074H551.297L541.634 297.422H512.961V250.728H485.672V368.153H679.258V275.21H662.814Z" fill="white"/>
<path d="M125.47 408.442L389.787 450.835L283.679 561.195L123.578 502.248L125.47 408.442Z" fill="white"/>
<path d="M669.162 298.817C669.238 298.755 669.287 298.667 669.299 298.569C669.31 298.472 669.284 298.375 669.226 298.296C669.196 298.259 669.16 298.226 669.118 298.202C669.074 298.177 669.028 298.163 668.98 298.156C668.931 298.15 668.882 298.154 668.835 298.167C668.788 298.18 668.744 298.203 668.706 298.233L665.239 300.91C665.671 297.345 665.963 295.037 665.975 294.948C665.981 294.899 665.977 294.85 665.963 294.804C665.95 294.757 665.927 294.714 665.896 294.676C665.864 294.638 665.827 294.607 665.785 294.584C665.741 294.561 665.694 294.546 665.645 294.542C665.598 294.535 665.549 294.538 665.503 294.55C665.456 294.562 665.412 294.584 665.375 294.614C665.337 294.643 665.304 294.68 665.281 294.722C665.258 294.765 665.243 294.811 665.239 294.858C665.239 294.948 664.947 297.257 664.515 300.808L661.467 296.875C661.438 296.838 661.401 296.805 661.358 296.781C661.316 296.757 661.27 296.742 661.221 296.735C661.172 296.729 661.124 296.734 661.076 296.747C661.029 296.759 660.986 296.782 660.948 296.812C660.914 296.846 660.887 296.885 660.868 296.928C660.85 296.973 660.841 297.019 660.841 297.066C660.841 297.113 660.85 297.161 660.868 297.204C660.887 297.247 660.914 297.286 660.948 297.32L664.452 301.848C664.249 303.561 664.02 305.502 663.767 307.607L660.668 303.7C660.597 303.635 660.504 303.597 660.408 303.597C660.31 303.597 660.218 303.635 660.147 303.7C660.114 303.734 660.087 303.773 660.068 303.816C660.05 303.86 660.041 303.907 660.041 303.954C660.041 304.001 660.05 304.049 660.068 304.092C660.087 304.135 660.114 304.175 660.147 304.208L663.703 308.698C663.5 310.462 663.284 312.313 663.055 314.217L659.931 310.322C659.861 310.257 659.768 310.219 659.672 310.219C659.574 310.219 659.481 310.257 659.41 310.322C659.377 310.356 659.349 310.395 659.332 310.438C659.313 310.481 659.303 310.529 659.303 310.576C659.303 310.623 659.313 310.671 659.332 310.714C659.349 310.757 659.377 310.796 659.41 310.83L663.005 315.294C662.802 316.995 662.611 318.72 662.408 320.369L659.233 316.564C659.171 316.488 659.08 316.439 658.983 316.43C658.885 316.42 658.788 316.45 658.712 316.512C658.636 316.574 658.589 316.665 658.579 316.762C658.57 316.86 658.6 316.957 658.662 317.033L662.293 321.46C662.116 323.096 661.925 324.732 661.748 326.331L658.445 322.526C658.413 322.492 658.372 322.465 658.329 322.446C658.286 322.428 658.238 322.419 658.192 322.419C658.145 322.419 658.098 322.428 658.054 322.446C658.01 322.465 657.97 322.492 657.938 322.526C657.869 322.594 657.83 322.688 657.83 322.785C657.83 322.882 657.869 322.976 657.938 323.045L661.684 327.359C661.519 328.905 661.354 330.39 661.201 331.811L658.332 328.285C658.298 328.248 658.257 328.22 658.213 328.201C658.168 328.181 658.119 328.171 658.071 328.171C658.022 328.171 657.974 328.181 657.928 328.201C657.884 328.22 657.845 328.248 657.811 328.285C657.746 328.352 657.709 328.443 657.709 328.538C657.709 328.632 657.746 328.723 657.811 328.792L661.151 332.902C660.896 335.338 660.681 337.532 660.528 339.32C660.524 339.369 660.531 339.418 660.546 339.464C660.562 339.51 660.586 339.552 660.618 339.588C660.65 339.625 660.688 339.654 660.733 339.676C660.776 339.698 660.823 339.71 660.871 339.714C660.964 339.714 661.055 339.679 661.122 339.615C661.191 339.552 661.233 339.464 661.239 339.37C661.392 337.595 661.608 335.388 661.861 332.939L665.48 329.996C665.519 329.966 665.552 329.93 665.576 329.888C665.599 329.845 665.615 329.799 665.621 329.75C665.628 329.702 665.623 329.653 665.61 329.606C665.596 329.558 665.575 329.515 665.544 329.477C665.473 329.411 665.38 329.374 665.284 329.374C665.186 329.374 665.094 329.411 665.024 329.477L661.963 332.013C662.116 330.606 662.267 329.122 662.446 327.587L666.256 324.238C666.329 324.174 666.375 324.083 666.381 323.986C666.389 323.888 666.357 323.792 666.293 323.718C666.261 323.681 666.223 323.65 666.18 323.629C666.136 323.607 666.089 323.595 666.04 323.591C665.943 323.584 665.847 323.615 665.772 323.68L662.509 326.508C662.675 324.948 662.864 323.35 663.043 321.727L666.992 318.491C667.061 318.422 667.1 318.329 667.1 318.232C667.1 318.133 667.061 318.04 666.992 317.971C666.921 317.905 666.828 317.868 666.732 317.868C666.634 317.868 666.541 317.905 666.471 317.971L662.903 320.381C663.106 318.668 663.296 316.957 663.487 315.308L667.474 312.11C667.513 312.082 667.544 312.047 667.568 312.005C667.593 311.963 667.607 311.918 667.614 311.871C667.62 311.824 667.616 311.775 667.603 311.729C667.59 311.683 667.568 311.64 667.537 311.603C667.468 311.534 667.375 311.495 667.277 311.495C667.18 311.495 667.086 311.534 667.017 311.603L663.614 314.33C663.83 312.44 664.046 310.525 664.262 308.825L668.261 305.654C668.299 305.625 668.332 305.59 668.356 305.548C668.38 305.508 668.395 305.462 668.401 305.414C668.407 305.367 668.403 305.318 668.39 305.272C668.378 305.226 668.355 305.184 668.325 305.147C668.295 305.107 668.258 305.076 668.215 305.052C668.173 305.028 668.126 305.011 668.078 305.006C668.03 305.001 667.981 305.005 667.934 305.017C667.886 305.03 667.843 305.053 667.804 305.083L664.388 307.798C664.63 305.693 664.871 303.751 665.074 302.038L669.162 298.817Z" fill="white"/>
<path d="M614.231 374.75H601.95H402.535V399.435H601.95H614.231H686.396V374.75H614.231Z" fill="#2F58FF"/>
<path d="M344.239 200.523C348.602 182.657 337.642 164.64 319.756 160.281C301.872 155.923 283.836 166.872 279.473 184.739C275.11 202.605 286.072 220.622 303.956 224.98C321.842 229.339 339.876 218.388 344.239 200.523Z" fill="#0D3BFB"/>
<path d="M316.063 218.837C330.541 216.513 340.392 202.903 338.065 188.441C335.738 173.976 322.115 164.136 307.636 166.46C293.158 168.785 283.307 182.393 285.633 196.858C287.96 211.32 301.584 221.161 316.063 218.837Z" fill="white"/>
<path d="M311.984 217.099L313.216 193.226L324.466 181.859L310.955 191.577L310.472 192.642L311.984 217.099Z" fill="#0D3BFB"/>
<path d="M529.417 639.323H520.606C520.606 638.156 521.07 637.037 521.895 636.211C522.722 635.386 523.843 634.923 525.012 634.923C526.18 634.923 527.301 635.386 528.127 636.211C528.953 637.037 529.417 638.156 529.417 639.323Z" fill="#C1C7D7"/>
<path d="M195.616 639.07L221.013 456.849H229.864L204.467 639.07H195.616Z" fill="#B8BDCC"/>
<path d="M193.076 639.07L218.473 456.849H227.323L201.927 639.07H193.076Z" fill="#C1C7D7"/>
<path d="M313.418 639.07L288.022 456.849H296.873L322.269 639.07H313.418Z" fill="#B8BDCC"/>
<path d="M320.988 448.007H195.616V456.849H320.988V448.007Z" fill="#C1C7D7"/>
<path d="M310.88 639.07L285.483 456.849H294.332L319.73 639.07H310.88Z" fill="#C1C7D7"/>
<path d="M206.345 542.765H215.158" stroke="white" stroke-width="0.938302" stroke-miterlimit="10"/>
<path d="M298.193 542.765H307.006" stroke="white" stroke-width="0.938302" stroke-miterlimit="10"/>
<path d="M214.842 517.013L211.209 542.765" stroke="white" stroke-width="0.938302" stroke-miterlimit="10"/>
<path d="M301.838 542.765L298.193 517.013" stroke="white" stroke-width="0.938302" stroke-miterlimit="10"/>
<path d="M210.207 552.469C211.167 552.469 211.946 551.69 211.946 550.73C211.946 549.77 211.167 548.993 210.207 548.993C209.246 548.993 208.468 549.77 208.468 550.73C208.468 551.69 209.246 552.469 210.207 552.469Z" stroke="white" stroke-width="0.938302" stroke-miterlimit="10"/>
<path d="M302.6 550.73C303.561 550.73 304.339 549.953 304.339 548.993C304.339 548.033 303.561 547.254 302.6 547.254C301.639 547.254 300.86 548.033 300.86 548.993C300.86 549.953 301.639 550.73 302.6 550.73Z" stroke="white" stroke-width="0.938302" stroke-miterlimit="10"/>
<path d="M269.152 445.318L267.616 446.852H223.895C214.511 446.852 212.898 438.404 214.092 433.837L237.863 363.46C238.8 361.864 240.038 360.463 241.508 359.337" stroke="#B8BDCC" stroke-width="0.938302" stroke-miterlimit="10"/>
<path d="M263.21 419.732C263.21 419.732 245.737 389.884 241.05 360.263C236.061 328.842 241.05 295.862 241.05 295.862L260.276 403.38L261.545 403.152L264.441 419.732H263.21Z" fill="#C1C7D7"/>
<path d="M243.909 295.138L262.79 400.628" stroke="#B8BDCC" stroke-width="0.938302" stroke-miterlimit="10"/>
<path d="M328.898 445.38H280.961V448.007H328.898V445.38Z" fill="#B8BDCC"/>
<path d="M183.706 448.007H334.054" stroke="#B8BDCC" stroke-width="0.938302" stroke-miterlimit="10"/>
<path d="M195.616 448.007V450.543H318.46V456.849H321V448.007H195.616Z" fill="#B8BDCC"/>
<path d="M309.101 615.184H207.515L208.758 606.343H307.844L309.101 615.184Z" fill="#C1C7D7"/>
<path d="M378.675 401.148L378.84 360.784L374.574 369.105L369.621 362.928C369.621 362.928 369.66 388.704 378.675 401.148Z" fill="white" stroke="#188EF8" stroke-width="0.938302" stroke-miterlimit="10"/>
<path d="M490.001 447.918C490.001 447.918 450.967 469.115 436.669 469.115C430.319 469.115 423.068 468.975 415.653 468.785C415.653 468.785 408.364 457.837 399.526 442.387C386.645 442.367 373.787 441.268 361.088 439.102V416.763C369.469 416.319 375.653 415.393 377.596 413.388C379.856 411.029 378.79 349.1 378.79 349.1C378.79 349.1 380.403 335.147 390.941 331.721C399.768 328.867 410.688 336.339 415.755 340.525C456.098 373.862 490.001 447.918 490.001 447.918Z" fill="#2F58FF"/>
<path d="M403.856 624.647C406.168 623.746 407.666 623.124 407.666 623.124C411.03 624.317 408.376 627.184 409.507 627.59C410.446 627.924 411.416 628.162 412.403 628.301L408.352 618.951H399.285L401.228 623.404L402.13 623.036C403.208 623.442 403.653 624.025 403.856 624.647Z" fill="#FFAE90"/>
<path d="M402.078 623.036C402.078 623.036 384.301 630.394 375.983 631.814C375.587 631.891 375.218 632.079 374.922 632.355C374.627 632.631 374.413 632.984 374.308 633.375C374.195 633.819 374.128 634.274 374.105 634.732L379.311 634.808C379.415 634.789 379.523 634.789 379.628 634.808C379.66 634.349 379.732 633.895 379.844 633.45C379.947 633.058 380.159 632.704 380.456 632.428C380.752 632.152 381.122 631.966 381.52 631.89C387.424 630.875 398.105 626.816 403.793 624.634C403.653 624.025 403.209 623.442 402.078 623.036Z" fill="#0D3BFB"/>
<path d="M374.105 634.732L379.628 634.82C380.427 634.947 378.434 639.082 379.743 639.146C381.05 639.21 376.53 639.146 374.206 639.07C372.911 639.007 372.428 634.338 374.105 634.732Z" fill="#CED4D7"/>
<path d="M355.818 342.264C358.586 340.652 360.746 339.156 360.746 339.156C360.746 339.156 354.396 320.978 360.746 317.591C370.904 312.212 364.327 325.811 367.234 327.51C369.583 328.881 372.148 328.031 374.244 326.496L381.317 330.555L367.349 355.76L355.818 342.264Z" fill="#FFAE90"/>
<path d="M368.073 415.66C361.025 416.763 362.053 417.677 361.025 418.386L346.142 419.947C345.825 418.463 371.158 408.404 370.993 406.78C369.432 391.558 368.771 370.539 368.986 362.902H370.257C369.991 372.137 373.367 386.23 379.273 400.615V415.66C377.698 417.55 368.073 415.66 368.073 415.66Z" fill="#2F58FF"/>
<path d="M405.507 612.546L408.301 618.989H396.872C396.872 618.989 347.984 535.61 334.015 506.624C332.035 502.514 325.723 485.58 340.784 477.867C335.64 486.176 339.756 497.009 341.292 500.18C355.259 529.179 404.123 612.508 404.123 612.508L405.507 612.546Z" fill="#0C0641"/>
<path opacity="0.7" d="M405.507 612.545L408.301 618.989H396.872C396.872 618.989 347.984 535.61 334.015 506.625C333.279 505.115 325.99 482.117 338.27 501.691C338.27 519.551 362.942 553.864 367.069 560.041C376.961 574.757 388.555 600.761 395.945 610.528C402.587 619.217 405.507 612.545 405.507 612.545Z" fill="#1D0344"/>
<path d="M385.596 519.551C391.005 523.585 407.767 525.145 409.075 525.272C421.011 526.451 482.18 531.538 495.247 514.109C501.468 505.813 501.9 490.717 499.691 474.226C499.691 474.226 494.764 454.959 490.001 447.918C490.001 447.918 450.967 469.115 436.669 469.115C415.717 469.115 386.105 467.656 369.241 467.567C328.695 467.326 338.765 494.789 341.304 500.18C355.273 529.179 404.135 612.508 404.135 612.508H419.628L385.596 519.551Z" fill="#0C0641"/>
<path d="M417.748 612.546L423.273 625.598C421.138 626.574 417.456 629.048 412.351 628.339L405.507 612.546H417.748Z" fill="#FFAE90"/>
<path d="M379.73 359.808C379.653 352.88 379.73 349.025 379.73 349.025C379.73 349.025 380.39 336.594 390.929 333.168V331.721L382.625 328.233L365.901 358.323L374.574 369.13L379.73 359.808Z" fill="#2F58FF"/>
<path d="M360.746 339.156C360.746 339.156 349.114 347.262 345.038 345.954C341.813 344.915 338.105 334.335 338.105 334.335C338.105 334.335 354.104 331.012 353.165 323.084C352.606 318.416 354.434 313.899 349.774 314.914C344.436 315.794 339.051 316.366 333.647 316.627C333.647 316.627 327.133 312.44 327.298 310.411C327.591 307.722 337.305 306.822 337.305 306.822C337.305 306.822 334.104 299.793 336.034 298.221C336.567 297.776 337.711 297.992 338.917 298.411C340.3 298.926 341.637 299.555 342.917 300.288C342.917 300.288 358.142 290.597 368.491 296.686C375.539 300.808 379.767 314.445 378.511 321.053C378.066 323.426 372.161 330.403 367.234 327.51C364.327 325.811 370.93 312.212 360.746 317.591C354.332 320.978 360.746 339.156 360.746 339.156Z" fill="#1D0344"/>
<path d="M488.567 398.395C488.567 398.395 526.23 489.83 504.669 519.551C486.052 545.199 407.057 533.897 407.057 533.897C407.057 533.897 400.86 533.428 400.86 528.899C400.86 522.951 407.057 525.094 407.057 525.094C407.057 525.094 408.199 525.221 410.244 525.411C424.554 526.757 482.624 531.056 495.247 514.134C514.079 489.018 479.869 401.629 479.869 401.629C479.869 401.629 476.656 395.287 482.408 393.652C487.005 392.281 488.567 398.395 488.567 398.395Z" fill="#C1C7D7"/>
<path d="M525.011 634.935L472.769 534.404L485.696 531.437L525.011 634.935Z" fill="#C1C7D7"/>
<path d="M438.307 635.62L422.611 536.155L435.703 537.069L438.307 635.62Z" fill="#C1C7D7"/>
<path d="M435.374 557.453L506.155 597.057" stroke="#C1C7D7" stroke-width="0.938302" stroke-miterlimit="10"/>
<path d="M435.983 599.531L485.849 557.086" stroke="#C1C7D7" stroke-width="0.938302" stroke-miterlimit="10"/>
<path d="M442.395 639.323H433.584C433.584 638.156 434.048 637.037 434.873 636.211C435.7 635.386 436.821 634.923 437.99 634.923C439.158 634.923 440.279 635.386 441.105 636.211C441.931 637.037 442.395 638.156 442.395 639.323Z" fill="#C1C7D7"/>
<path d="M327.553 431.96C324.326 432.655 320.982 432.563 317.799 431.693C317.799 431.693 311.857 439.571 310.765 439.051C309.114 438.265 311.882 432.709 311.121 432.442C310.168 432.113 305.673 439.545 303.971 438.607C302.015 437.528 309.71 424.044 313.99 421.558C318.27 419.072 327.006 421.939 327.006 421.939L361.025 418.386V436.602C361.025 436.602 335.045 429.956 327.553 431.96Z" fill="#FFAE90"/>
<path d="M361.025 321.218C365.52 318.098 363.4 324.833 363.31 326.191" stroke="black" stroke-width="0.938302" stroke-miterlimit="10"/>
<path d="M369.66 441.449L361.025 439.114V416.763L369.66 415.419V441.449Z" fill="white"/>
<path d="M369.279 508.641C382.675 518.408 385.596 519.551 385.596 519.551" stroke="black" stroke-width="0.938302" stroke-miterlimit="10"/>
<path d="M333.647 316.627L332.923 332.711L338.105 334.335C338.105 334.335 354.104 331.012 353.164 323.084C352.606 318.416 354.434 313.899 349.774 314.914C344.435 315.794 339.051 316.366 333.647 316.627Z" fill="#FFAE90"/>
<path d="M425.787 633.704C425.787 633.704 426.738 625.294 424.593 625.179C422.688 625.078 417.52 630.444 409.456 627.59C408.326 627.184 410.98 624.317 407.616 623.124C407.616 623.124 389.837 630.481 381.52 631.902C381.122 631.978 380.752 632.165 380.456 632.44C380.159 632.716 379.947 633.072 379.844 633.462C379.732 633.909 379.66 634.363 379.628 634.82C402.257 637.129 425.787 633.704 425.787 633.704Z" fill="#0D3BFB" stroke="#0D3BFB" stroke-width="0.938302" stroke-miterlimit="10"/>
<path d="M425.342 639.323C416.936 639.488 388.415 639.577 379.743 639.146C378.473 639.082 377.952 634.428 379.628 634.821C402.257 637.129 425.787 633.704 425.787 633.704C427.399 633.856 427.17 639.299 425.342 639.323Z" fill="#CED4D7"/>
<path opacity="0.6" d="M403.577 612.824C403.082 611.999 354.523 529.102 340.721 500.459C340.06 499.089 334.307 487.635 340.072 478.298L341.216 477.221C335.793 485.985 341.216 498.607 341.863 499.902C355.641 528.544 404.187 611.353 404.67 612.19L403.577 612.824Z" fill="#0C0042"/>
<path d="M409.456 627.59C408.326 627.184 410.98 624.317 407.616 623.124C407.616 623.124 389.837 630.481 381.52 631.902C381.122 631.978 380.752 632.165 380.456 632.44C380.159 632.716 379.947 633.072 379.844 633.462C379.732 633.909 379.66 634.363 379.628 634.82" stroke="#0D3BFB" stroke-width="0.938302" stroke-miterlimit="10"/>
<path d="M412.351 628.313L405.507 612.52" stroke="#C17963" stroke-width="0.938302" stroke-miterlimit="10"/>
<path d="M411.742 628.212C411.742 628.212 402.917 632.194 402.295 630.749C401.672 629.303 409.355 625.763 409.355 625.763C409.24 626.638 408.91 627.399 409.456 627.59C410.201 627.855 410.965 628.063 411.742 628.212Z" fill="white" stroke="#0D3BFB" stroke-width="0.938302" stroke-miterlimit="10"/>
<path d="M77.1187 531.145C82.5156 528.355 88.8775 527.999 94.8964 528.989C98.1218 529.521 101.487 530.485 103.671 532.896C105.855 535.306 106.287 539.581 103.76 541.648C102.142 542.753 100.186 543.251 98.236 543.057C93.5377 543.057 88.3187 542.181 84.5726 544.997C82.4267 546.608 81.0044 549.285 78.4393 550.072C77.158 550.365 75.8159 550.234 74.6155 549.699C73.4152 549.163 72.4219 548.252 71.7854 547.103C70.5679 544.756 70.2954 542.033 71.0235 539.492C71.3291 537.726 72.0378 536.055 73.0949 534.607C74.152 533.159 75.529 531.975 77.1187 531.145Z" fill="#EDF7FC"/>
<path d="M64.725 507.259C68.0392 511.977 74.4645 510.417 77.4233 507.538C80.382 504.658 81.6645 500.485 82.8074 496.515C85.4233 487.42 88.0646 477.881 86.1217 468.608C85.6552 465.792 84.4206 463.158 82.5534 460.996C81.6146 459.947 80.4177 459.162 79.0814 458.717C77.745 458.272 76.3156 458.183 74.9344 458.459C71.6963 459.309 69.6772 462.481 68.217 465.5C63.9351 474.399 61.6923 484.141 61.652 494.016C61.652 498.608 62.1726 503.428 64.763 507.221" fill="#EDF7FC"/>
<path d="M55.6838 514.032C59.2647 509.771 59.9504 503.568 58.3504 498.24C56.5353 492.944 53.2978 488.248 48.9917 484.667C44.0982 480.319 38.4054 476.963 32.23 474.785C29.8375 473.821 27.2636 473.388 24.687 473.516C23.3978 473.583 22.1447 473.965 21.0376 474.629C19.9305 475.293 19.0036 476.218 18.3379 477.322C16.5728 480.747 18.2617 484.769 20.1283 488.105C23.3402 493.964 27.0087 499.564 31.0998 504.849C34.4013 509.099 38.1854 513.297 43.214 515.212C48.2425 517.128 53.4616 516.912 56.1282 513.424" fill="#EDF7FC"/>
<path d="M64.5726 578.423C64.7491 577.721 64.847 577.002 64.8647 576.279L65.4362 570.432C65.7146 567.554 66.1383 564.691 66.706 561.857C67.4736 558.396 68.5183 555.002 69.8298 551.708C71.1082 548.425 72.8484 545.341 74.998 542.55C76.7478 540.274 78.9814 538.416 81.5376 537.107C83.2746 536.254 85.134 535.677 87.0488 535.395C87.7686 535.37 88.4837 535.267 89.1821 535.09C88.4606 535.007 87.7321 535.007 87.0106 535.09C85.0199 535.229 83.0709 535.728 81.2583 536.562C78.5645 537.834 76.2006 539.709 74.3503 542.041C72.1119 544.876 70.3062 548.028 68.9917 551.391C67.6424 554.717 66.5886 558.155 65.8425 561.666C65.2856 564.532 64.9039 567.429 64.6996 570.343C64.5092 572.879 64.4457 574.846 64.4075 576.229C64.3814 576.963 64.4368 577.7 64.5726 578.423Z" fill="#C1C7D7"/>
<path d="M64.9157 573.894C64.9457 573.565 64.9457 573.234 64.9157 572.904C64.9157 572.157 64.9157 571.217 64.9157 570.063C64.9157 567.526 64.9157 564.025 65.0426 559.611C65.2712 550.795 66.0331 541.306 67.4933 527.898C68.8903 515.314 70.7569 500.675 72.7251 491.112C73.1442 488.942 73.5632 487 73.9949 485.289C74.4267 483.576 74.7061 482.105 75.0108 480.913C75.3156 479.72 75.506 478.882 75.6839 478.147C75.7758 477.828 75.8353 477.501 75.8616 477.171C75.7006 477.465 75.581 477.782 75.506 478.109C75.2902 478.819 75.0236 479.72 74.6806 480.824C74.3378 481.927 73.9442 483.475 73.5124 485.174C73.0807 486.875 72.5981 488.815 72.1282 490.985C69.6981 502.266 67.8711 513.669 66.6554 525.145C65.1823 538.553 64.522 550.756 64.4585 559.597C64.4585 564.025 64.4585 567.602 64.6109 570.063C64.6871 571.217 64.7378 572.157 64.7887 572.904C64.7856 573.238 64.8284 573.572 64.9157 573.894Z" fill="#C1C7D7"/>
<path d="M64.9663 550.35C65.0437 549.362 65.0437 548.37 64.9663 547.383C64.8521 545.467 64.5854 542.715 64.052 539.327C63.3973 535.375 62.524 531.461 61.4362 527.606C60.1477 522.863 58.5006 518.223 56.5092 513.728C53.1034 505.446 48.2199 497.852 42.0966 491.315C41.0333 490.195 39.901 489.145 38.7061 488.169C38.1855 487.724 37.7283 487.293 37.2586 486.899L35.9888 485.999C35.1876 485.397 34.3381 484.863 33.4491 484.401C36.336 486.66 39.0758 489.1 41.6522 491.707C47.5711 498.313 52.3167 505.881 55.6838 514.084C57.6314 518.554 59.2815 523.147 60.6235 527.834C61.8933 532.134 62.7569 536.105 63.4045 539.442C64.0522 542.777 64.3822 545.517 64.5981 547.407C64.6396 548.397 64.7628 549.381 64.9663 550.35Z" fill="#C1C7D7"/>
<path d="M40.6112 588.318L42.973 620.638H84.5476L86.9094 588.318H40.6112Z" fill="#0D3BFB"/>
<path d="M91.8741 575.569H36.5981V588.304H91.8741V575.569Z" fill="#0D3BFB"/>
<path d="M36.5852 619.408V622.935H39.1885H90.947V619.408H36.5852Z" fill="#E4E9F2"/>
<path d="M41.7412 628.758L39.1888 622.542H88.9663L85.995 628.758H41.7412Z" fill="#0D3BFB"/>
<path d="M86.16 598.871C86.1017 598.979 86.0337 599.08 85.9569 599.175C85.7918 599.391 85.5886 599.658 85.3473 600C84.7505 600.749 83.9378 601.788 82.9219 603.096L82.8077 603.221L82.706 603.082L76.7378 594.914H77.0806L71.2141 603.197L71.0362 603.463L70.8331 603.209C68.6617 600.672 66.3124 597.856 63.8871 594.964H64.2808L63.8998 595.446L57.6903 603.221L57.4745 603.489L57.2839 603.209L51.4299 594.914H51.7729L44.5474 603.12L44.4205 603.273L44.3316 603.108L42.0714 599.302L41.4871 598.287C41.4145 598.176 41.3549 598.057 41.3094 597.933C41.3094 597.933 41.3984 598.034 41.5506 598.249L42.1983 599.226L44.5602 602.943H44.3443L51.4427 594.622L51.6205 594.419L51.7856 594.647L57.6903 602.893H57.2966L63.4934 595.103L63.8744 594.622L64.0775 594.368L64.2808 594.608L71.2013 602.893H70.8204L76.7378 594.647L76.9029 594.405L77.0806 594.647L82.8966 602.955H82.6933L85.233 599.95L85.906 599.163C85.9753 599.053 86.0609 598.955 86.16 598.871Z" fill="#F5F5F5" stroke="white" stroke-width="0.938302" stroke-miterlimit="10" stroke-linecap="square"/>
<path d="M87.4297 588.101C87.4297 588.241 77.0171 588.356 64.1663 588.356C51.3156 588.356 40.903 588.241 40.903 588.101C40.903 587.962 51.3156 587.835 64.1663 587.835C77.0171 587.835 87.4297 587.949 87.4297 588.101Z" fill="#F5F5F5"/>
</svg>
