<svg width="105" height="80" viewBox="0 0 105 80" fill="none" xmlns="http://www.w3.org/2000/svg">
<path fill-rule="evenodd" clip-rule="evenodd" d="M73.9771 80C104.856 80 104.865 51.1058 104.865 38.006C104.865 24.9061 96.4031 14.6063 67.5395 14.6063C38.6759 14.6063 51.3413 0 29.357 0C7.37269 0 -4.36601 15.5626 1.50334 38.9671C7.37269 62.3717 33.767 41.3621 42.5542 51.8669C51.3413 62.3717 59.7873 80 73.9771 80Z" fill="#61FDF9" fill-opacity="0.04"/>
<path d="M21.2266 14.7682C21.2245 11.3182 24.0136 8.51651 27.4636 8.50311H21.2266C17.7766 8.51651 14.9875 11.3182 14.9896 14.7682V65.2318C14.9875 68.6818 17.7766 71.4835 21.2266 71.4969H27.4636C24.0136 71.4835 21.2245 68.6818 21.2266 65.2318V14.7682Z" fill="#D4E1F4"/>
<path d="M90.7693 14.7401C90.7693 10.7788 87.558 7.56757 83.5967 7.56757H21.2266C17.2653 7.56757 14.0541 10.7788 14.0541 14.7401V65.2599C14.0541 69.2212 17.2653 72.4324 21.2266 72.4324H83.5967C87.558 72.4324 90.7693 69.2212 90.7693 65.2599V14.7401ZM88.8982 17.8586H29.3347C28.8181 17.8586 28.3992 18.2775 28.3992 18.7942C28.3992 19.3109 28.8181 19.7297 29.3347 19.7297H88.8982V65.2315C88.8972 68.1636 86.5288 70.5447 83.5967 70.5613H21.2266C18.2946 70.5447 15.9262 68.1636 15.9252 65.2315V19.7297H22.7859C23.3026 19.7297 23.7214 19.3109 23.7214 18.7942C23.7214 18.2775 23.3026 17.8586 22.7859 17.8586H15.9252V14.7685C15.9262 11.8364 18.2946 9.4553 21.2266 9.43867H83.5967C86.5288 9.4553 88.8972 11.8364 88.8982 14.7685V17.8586Z" fill="#2F58FF"/>
<path d="M21.4504 12.8146C20.9136 12.8144 20.4296 13.1377 20.2241 13.6336C20.0186 14.1295 20.1321 14.7004 20.5116 15.08C20.8912 15.4596 21.462 15.5731 21.9579 15.3677C22.4539 15.1623 22.7772 14.6783 22.7771 14.1415C22.7763 13.4091 22.1828 12.8155 21.4504 12.8146Z" fill="#2F58FF"/>
<path d="M26.3863 12.8146C25.8496 12.8146 25.3656 13.1379 25.1602 13.6338C24.9548 14.1298 25.0684 14.7006 25.448 15.0801C25.8276 15.4596 26.3984 15.5731 26.8943 15.3677C27.3902 15.1622 27.7135 14.6783 27.7134 14.1415C27.7125 13.409 27.1189 12.8153 26.3863 12.8146Z" fill="#2F58FF"/>
<path d="M31.4784 12.8146C30.9416 12.8145 30.4577 13.1378 30.2522 13.6337C30.0468 14.1296 30.1603 14.7005 30.5399 15.08C30.9194 15.4596 31.4903 15.5731 31.9862 15.3677C32.4821 15.1622 32.8054 14.6783 32.8053 14.1415C32.8044 13.4091 32.2108 12.8155 31.4784 12.8146Z" fill="#2F58FF"/>
<path d="M18.8877 25.5484C18.371 25.5484 17.9521 25.9673 17.9521 26.484V39.6709C17.9521 40.1875 18.371 40.6064 18.8877 40.6064C19.4044 40.6064 19.8233 40.1875 19.8233 39.6709V26.484C19.8233 25.9673 19.4044 25.5484 18.8877 25.5484Z" fill="#2F58FF"/>
<path d="M18.8877 21.921C18.371 21.921 17.9521 22.3398 17.9521 22.8565V23.5759C17.9521 24.0926 18.371 24.5115 18.8877 24.5115C19.4044 24.5115 19.8233 24.0926 19.8233 23.5759V22.8565C19.8233 22.3398 19.4044 21.921 18.8877 21.921Z" fill="#2F58FF"/>
<path d="M29.3724 35.6397C29.0071 35.2745 28.4149 35.2745 28.0496 35.6397L21.0764 42.6128C20.901 42.7883 20.8024 43.0263 20.8024 43.2744C20.8024 43.5226 20.901 43.7606 21.0764 43.936L28.0496 50.9091C28.4163 51.266 29.0018 51.262 29.3636 50.9001C29.7254 50.5383 29.7294 49.9528 29.3724 49.5861L23.0611 43.2744L29.3724 36.9627C29.7378 36.5974 29.7378 36.0051 29.3724 35.6397Z" fill="#2F58FF"/>
<path d="M40.5231 35.6397C40.1563 35.2828 39.5709 35.2868 39.2091 35.6487C38.8472 36.0106 38.8433 36.596 39.2002 36.9627L45.5116 43.2744L39.2002 49.5861C38.9585 49.8213 38.8621 50.1684 38.9479 50.4946C39.0337 50.8208 39.2884 51.0755 39.6146 51.1613C39.9407 51.2472 40.2879 51.1508 40.5231 50.9091L47.4962 43.936C47.6717 43.7606 47.7703 43.5226 47.7703 43.2744C47.7703 43.0263 47.6717 42.7883 47.4962 42.6128L40.5231 35.6397Z" fill="#2F58FF"/>
<path d="M37.2343 31.0711C36.7321 30.9498 36.2266 31.2586 36.1053 31.7608L30.6487 54.3487C30.567 54.6747 30.6665 55.0195 30.9093 55.2519C31.1522 55.4843 31.501 55.5685 31.8231 55.4726C32.1452 55.3768 32.3912 55.1154 32.4674 54.7881L37.9247 32.2002C37.983 31.9589 37.9429 31.7043 37.8135 31.4926C37.684 31.2808 37.4756 31.1292 37.2343 31.0711Z" fill="#2F58FF"/>
<path d="M52.849 32.9834H52.3812C51.8645 32.9834 51.4457 33.4023 51.4457 33.9189C51.4457 34.4356 51.8645 34.8545 52.3812 34.8545H52.849C53.3657 34.8545 53.7846 34.4356 53.7846 33.9189C53.7846 33.4023 53.3657 32.9834 52.849 32.9834Z" fill="#2F58FF"/>
<path d="M59.1219 32.9834H57.5131C56.9964 32.9834 56.5775 33.4023 56.5775 33.9189C56.5775 34.4356 56.9964 34.8545 57.5131 34.8545H59.1219C59.6386 34.8545 60.0574 34.4356 60.0574 33.9189C60.0574 33.4023 59.6386 32.9834 59.1219 32.9834Z" fill="#2F58FF"/>
<path d="M83.0854 32.9834H63.8616C63.3449 32.9834 62.926 33.4023 62.926 33.9189C62.926 34.4356 63.3449 34.8545 63.8616 34.8545H83.0854C83.6021 34.8545 84.021 34.4356 84.021 33.9189C84.021 33.4023 83.6021 32.9834 83.0854 32.9834Z" fill="#2F58FF"/>
<path d="M52.849 39.2204H52.3812C51.8645 39.2204 51.4457 39.6393 51.4457 40.1559C51.4457 40.6726 51.8645 41.0915 52.3812 41.0915H52.849C53.3657 41.0915 53.7846 40.6726 53.7846 40.1559C53.7846 39.6393 53.3657 39.2204 52.849 39.2204Z" fill="#2F58FF"/>
<path d="M59.1219 39.2204H57.5131C56.9964 39.2204 56.5775 39.6393 56.5775 40.1559C56.5775 40.6726 56.9964 41.0915 57.5131 41.0915H59.1219C59.6386 41.0915 60.0574 40.6726 60.0574 40.1559C60.0574 39.6393 59.6386 39.2204 59.1219 39.2204Z" fill="#2F58FF"/>
<path d="M83.0854 39.2204H63.8616C63.3449 39.2204 62.926 39.6393 62.926 40.1559C62.926 40.6726 63.3449 41.0915 63.8616 41.0915H83.0854C83.6021 41.0915 84.021 40.6726 84.021 40.1559C84.021 39.6393 83.6021 39.2204 83.0854 39.2204Z" fill="#2F58FF"/>
<path d="M52.849 45.4574H52.3812C51.8645 45.4574 51.4457 45.8763 51.4457 46.3929C51.4457 46.9096 51.8645 47.3285 52.3812 47.3285H52.849C53.3657 47.3285 53.7846 46.9096 53.7846 46.3929C53.7846 45.8763 53.3657 45.4574 52.849 45.4574Z" fill="#2F58FF"/>
<path d="M59.1219 45.4574H57.5131C56.9964 45.4574 56.5775 45.8763 56.5775 46.3929C56.5775 46.9096 56.9964 47.3285 57.5131 47.3285H59.1219C59.6386 47.3285 60.0574 46.9096 60.0574 46.3929C60.0574 45.8763 59.6386 45.4574 59.1219 45.4574Z" fill="#2F58FF"/>
<path d="M83.0854 45.4574H63.8616C63.3449 45.4574 62.926 45.8763 62.926 46.3929C62.926 46.9096 63.3449 47.3285 63.8616 47.3285H83.0854C83.6021 47.3285 84.021 46.9096 84.021 46.3929C84.021 45.8763 83.6021 45.4574 83.0854 45.4574Z" fill="#2F58FF"/>
<path d="M52.849 51.6944H52.3812C51.8645 51.6944 51.4457 52.1133 51.4457 52.6299C51.4457 53.1466 51.8645 53.5655 52.3812 53.5655H52.849C53.3657 53.5655 53.7846 53.1466 53.7846 52.6299C53.7846 52.1133 53.3657 51.6944 52.849 51.6944Z" fill="#2F58FF"/>
<path d="M59.1219 51.6944H57.5131C56.9964 51.6944 56.5775 52.1133 56.5775 52.6299C56.5775 53.1466 56.9964 53.5655 57.5131 53.5655H59.1219C59.6386 53.5655 60.0574 53.1466 60.0574 52.6299C60.0574 52.1133 59.6386 51.6944 59.1219 51.6944Z" fill="#2F58FF"/>
<path d="M83.0854 51.6944H63.8616C63.3449 51.6944 62.926 52.1133 62.926 52.6299C62.926 53.1466 63.3449 53.5655 63.8616 53.5655H83.0854C83.6021 53.5655 84.021 53.1466 84.021 52.6299C84.021 52.1133 83.6021 51.6944 83.0854 51.6944Z" fill="#2F58FF"/>
</svg>
