<svg width="105" height="80" viewBox="0 0 105 80" fill="none" xmlns="http://www.w3.org/2000/svg">
<path fill-rule="evenodd" clip-rule="evenodd" d="M73.9771 80C104.856 80 104.865 51.1058 104.865 38.006C104.865 24.9061 96.4031 14.6063 67.5395 14.6063C38.6759 14.6063 51.3413 0 29.357 0C7.37269 0 -4.36601 15.5626 1.50334 38.9671C7.37269 62.3717 33.767 41.3621 42.5542 51.8669C51.3413 62.3717 59.7873 80 73.9771 80Z" fill="#61FDF9" fill-opacity="0.04"/>
<path d="M34.2241 16.5857H38.9116V59.5312H34.2241V16.5857Z" fill="#D4E1F4"/>
<path d="M42.8331 7.1875H38.1456C35.9807 7.18994 34.2266 8.94409 34.2241 11.1096V14.3982H38.9116V11.109C38.9141 8.94409 40.6682 7.18994 42.8331 7.1875Z" fill="#D4E1F4"/>
<path d="M42.8331 69.6039C40.6682 69.6014 38.9141 67.8473 38.9116 65.6824V61.7188H34.2241V68.8074C34.2266 70.9723 35.9807 72.7271 38.1456 72.7295H67.4895C69.3474 72.7271 70.9502 71.4227 71.3298 69.6045L42.8331 69.6039Z" fill="#D4E1F4"/>
<path d="M51.5495 42.8613C51.2291 42.8619 50.9245 42.7215 50.717 42.478L48.8072 40.2417C48.4148 39.7821 48.4691 39.0918 48.9287 38.6993C49.3883 38.3069 50.0786 38.3612 50.4704 38.8208L51.6869 40.2447L55.3063 37.3004C55.609 37.052 56.0216 36.9848 56.3878 37.124C56.7546 37.2626 57.0183 37.5873 57.0799 37.9742C57.1416 38.3612 56.9914 38.7512 56.6869 38.9978L52.2398 42.616C52.0445 42.7746 51.801 42.8613 51.5495 42.8613Z" fill="#2F58FF"/>
<path d="M52.8179 49.646C47.4675 49.646 43.1304 45.3088 43.1304 39.9585C43.1304 34.6082 47.4675 30.271 52.8179 30.271C58.1682 30.271 62.5054 34.6082 62.5054 39.9585C62.4993 45.3058 58.1658 49.6399 52.8179 49.646ZM52.8179 32.4585C48.6754 32.4585 45.3179 35.816 45.3179 39.9585C45.3179 44.1003 48.6754 47.4585 52.8179 47.4585C56.9597 47.4585 60.3179 44.1003 60.3179 39.9585C60.313 35.8179 56.9579 32.4628 52.8179 32.4585Z" fill="#2F58FF"/>
<path d="M67.4895 5H38.1456C34.7734 5.00366 32.0403 7.73682 32.0366 11.1096V68.8074C32.0403 72.1802 34.7734 74.9127 38.1456 74.917H67.4895C70.8623 74.9127 73.5955 72.1802 73.5991 68.8074V11.109C73.5948 7.73682 70.8623 5.00366 67.4895 5ZM34.2241 16.5857H71.4116V59.5312H34.2241V16.5857ZM38.1456 7.1875H67.4895C69.6544 7.18994 71.4092 8.94409 71.4116 11.1096V14.3982H34.2241V11.109C34.2266 8.94409 35.9807 7.18994 38.1456 7.1875ZM67.4895 72.7289H38.1456C35.9807 72.7264 34.2266 70.9723 34.2241 68.8074V61.7188H71.4116V68.8074C71.4092 70.9723 69.6544 72.7264 67.4895 72.7289Z" fill="#2F58FF"/>
<path d="M57.2429 66.1768H48.3922C47.788 66.1768 47.2985 66.6669 47.2985 67.2705C47.2985 67.8748 47.788 68.3643 48.3922 68.3643H57.2429C57.8472 68.3643 58.3367 67.8748 58.3367 67.2705C58.3367 66.6669 57.8472 66.1768 57.2429 66.1768Z" fill="#2F58FF"/>
<path d="M67.4272 38.8647H65.7866C65.1824 38.8647 64.6929 39.3542 64.6929 39.9585C64.6929 40.5621 65.1824 41.0522 65.7866 41.0522H67.4272C68.0309 41.0522 68.521 40.5621 68.521 39.9585C68.521 39.3542 68.0309 38.8647 67.4272 38.8647Z" fill="#2F58FF"/>
<path d="M39.8491 41.0522C40.4528 41.0522 40.9429 40.5621 40.9429 39.9585C40.9429 39.3542 40.4528 38.8647 39.8491 38.8647H38.2085C37.6042 38.8647 37.1147 39.3542 37.1147 39.9585C37.1147 40.5621 37.6042 41.0522 38.2085 41.0522H39.8491Z" fill="#2F58FF"/>
<path d="M66.9865 43.6841L64.6965 42.8949C64.1252 42.6977 63.5033 43.0011 63.3061 43.5724C63.1096 44.1436 63.4129 44.7662 63.9836 44.9627L66.2737 45.7519C66.6435 45.8819 67.0549 45.8032 67.3515 45.5468C67.6482 45.2899 67.7843 44.8944 67.7086 44.5092C67.6335 44.1247 67.3576 43.8098 66.9865 43.6841Z" fill="#2F58FF"/>
<path d="M41.6515 34.9536L39.362 34.1645C38.9916 34.0351 38.5808 34.1132 38.2842 34.3695C37.9875 34.6265 37.8514 35.022 37.9265 35.4071C38.0022 35.7917 38.2775 36.1072 38.6492 36.2329L40.9386 37.0215C41.5099 37.2187 42.1324 36.9153 42.3296 36.344C42.5261 35.7727 42.2228 35.1502 41.6515 34.9536Z" fill="#2F58FF"/>
<path d="M64.4555 37.4341C64.5659 37.4341 64.6752 37.4176 64.7808 37.3847L67.0928 36.6657C67.4682 36.5515 67.7532 36.2451 67.8405 35.8631C67.9278 35.4804 67.8032 35.0806 67.5152 34.8151C67.2265 34.5496 66.8175 34.4586 66.444 34.577L64.1314 35.296C63.6144 35.456 63.2921 35.9699 63.3733 36.5045C63.4545 37.0398 63.9147 37.4347 64.4555 37.4341Z" fill="#2F58FF"/>
<path d="M40.855 42.5317L38.5424 43.2507C38.167 43.3648 37.882 43.6712 37.7947 44.0539C37.708 44.436 37.8319 44.8358 38.1206 45.1013C38.4093 45.3674 38.8176 45.4577 39.1918 45.3393L41.5044 44.6209C42.0812 44.4415 42.4034 43.8287 42.224 43.2513C42.0446 42.6745 41.4318 42.3523 40.855 42.5317Z" fill="#2F58FF"/>
</svg>
