<svg width="97" height="80" viewBox="0 0 97 80" fill="none" xmlns="http://www.w3.org/2000/svg">
<path fill-rule="evenodd" clip-rule="evenodd" d="M68.4288 80C96.9921 80 97 53.2729 97 41.1555C97 29.0382 89.1728 19.5109 62.474 19.5109C35.7752 19.5109 47.4907 6 27.1552 6C6.81974 6 -4.03856 20.3954 1.39059 42.0446C6.81974 63.6938 31.2345 44.2599 39.3626 53.9769C47.4907 63.6938 55.3033 80 68.4288 80Z" fill="#61FDF9" fill-opacity="0.04"/>
<path d="M51.4112 14.0898C50.6662 14.0082 49.9176 13.9639 49.1681 13.9571C36.7028 13.8444 26.5624 23.8966 26.5624 36.3146C26.5557 42.58 29.1876 48.5586 33.813 52.7848C35.4155 54.2631 36.6879 56.0631 37.5469 58.0669C38.4069 60.0739 38.8459 62.2361 38.8367 64.4196V78.3298C38.8576 78.7194 39.1813 79.0236 39.5714 79.0204H44.4693C44.0792 79.0236 43.7556 78.7194 43.7346 78.3298V64.4196C43.7436 62.236 43.3044 60.0739 42.444 58.0669C41.5811 56.0628 40.3054 54.2631 38.7 52.7853C34.0761 48.5585 31.4461 42.5798 31.4548 36.3151C31.4548 24.7918 40.1926 15.3074 51.4112 14.0898Z" fill="#D4E1F4"/>
<path d="M65.3347 19.6852C59.325 13.7538 50.5816 11.528 42.4673 13.8641C34.353 16.2001 28.1315 22.734 26.1955 30.9529C24.2595 39.1719 26.9106 47.7958 33.1291 53.5079C36.1618 56.3237 37.8765 60.2809 37.8571 64.4191V78.3303C37.8793 79.2605 38.641 80.0023 39.5714 80H58.3469C59.2774 80.0023 60.039 79.2605 60.0612 78.3303V64.4023C60.084 60.2192 61.8408 56.233 64.9128 53.3938C69.5791 49.0578 72.2651 42.9993 72.3448 36.6299C72.4245 30.2605 69.891 24.1366 65.3347 19.6852ZM58.102 65.4694V68.2449H39.8163V65.4694H58.102ZM39.8163 70.2041H58.102V73.1429H39.8163V70.2041ZM39.8163 78.0408V75.102H58.102V78.0408H39.8163ZM63.5567 51.9946C60.3114 54.9802 58.3507 59.1083 58.0875 63.5102H39.831C39.6021 59.1536 37.6801 55.0588 34.4751 52.0991C30.0639 48.0425 27.5501 42.326 27.5422 36.3331C27.5378 26.5443 34.1708 17.9983 43.6545 15.5739C53.1383 13.1494 63.0589 17.4636 67.7528 26.0535C72.4468 34.6433 70.7194 45.3226 63.5567 51.9946Z" fill="#2F58FF"/>
<path d="M49.7755 8.83869C50.3165 8.83869 50.7551 8.40012 50.7551 7.8591V0.979592C50.7551 0.438578 50.3165 0 49.7755 0C49.2345 0 48.7959 0.438578 48.7959 0.979592V7.8591C48.7959 8.40012 49.2345 8.83869 49.7755 8.83869Z" fill="#2F58FF"/>
<path d="M81.7962 32.8163H74.9049C74.3639 32.8163 73.9253 33.2549 73.9253 33.7959C73.9253 34.337 74.3639 34.7755 74.9049 34.7755H81.7962C82.3372 34.7755 82.7757 34.337 82.7757 33.7959C82.7757 33.2549 82.3372 32.8163 81.7962 32.8163Z" fill="#2F58FF"/>
<path d="M16.1223 34.7755H23.0136C23.5546 34.7755 23.9931 34.337 23.9931 33.7959C23.9931 33.2549 23.5546 32.8163 23.0136 32.8163H16.1223C15.5813 32.8163 15.1427 33.2549 15.1427 33.7959C15.1427 34.337 15.5813 34.7755 16.1223 34.7755Z" fill="#2F58FF"/>
<path d="M73.881 8.88164C73.6974 8.69777 73.4483 8.59436 73.1884 8.59418C72.9286 8.59399 72.6793 8.69705 72.4955 8.88066L67.118 14.2487C66.7352 14.6309 66.7347 15.2512 67.117 15.6341C67.4992 16.0169 68.1195 16.0174 68.5023 15.6351L73.8798 10.2668C74.2625 9.88457 74.2631 9.26449 73.881 8.88164Z" fill="#2F58FF"/>
<path d="M29.4164 15.6351C29.664 15.8824 30.0248 15.9788 30.3628 15.8879C30.7008 15.7971 30.9646 15.5328 31.055 15.1947C31.1453 14.8566 31.0484 14.496 30.8007 14.2487L25.4229 8.88035C25.1752 8.63306 24.8145 8.53669 24.4765 8.62753C24.1385 8.71837 23.8746 8.98263 23.7843 9.32075C23.694 9.65888 23.7909 10.0195 24.0386 10.2668L29.4164 15.6351Z" fill="#2F58FF"/>
<path d="M25.3404 45.4516C25.2169 45.1208 24.925 44.882 24.5763 44.8266C24.2276 44.7712 23.8761 44.9077 23.6562 45.184C23.4363 45.4602 23.3821 45.8334 23.5142 46.1608C23.7507 46.7696 24.012 47.3773 24.2912 47.9669C24.5227 48.4558 25.1068 48.6646 25.5958 48.4331C26.0848 48.2015 26.2935 47.6175 26.062 47.1285C25.8027 46.5811 25.56 46.0168 25.3404 45.4516Z" fill="#2F58FF"/>
<path d="M25.9015 50.8921C27.1857 52.9219 28.733 54.7727 30.5031 56.3962C31.792 57.5858 32.77 59.0729 33.3515 60.7276C33.4681 61.0576 33.752 61.3003 34.0961 61.3643C34.4402 61.4283 34.7923 61.3038 35.0198 61.0378C35.2472 60.7718 35.3155 60.4046 35.1988 60.0746C34.5101 58.1172 33.3525 56.3582 31.8271 54.9515C30.1846 53.4451 28.7488 51.728 27.557 49.8449C27.2677 49.3877 26.6625 49.2517 26.2053 49.541C25.7482 49.8304 25.6122 50.4356 25.9015 50.8927V50.8921Z" fill="#2F58FF"/>
<path d="M52.9428 37.8168C53.2362 37.6058 53.6125 37.547 53.9563 37.6584C54.3001 37.7698 54.5703 38.0381 54.6842 38.3811C54.7385 38.5428 54.7553 38.7147 54.7332 38.8838C54.6876 39.2308 54.8306 39.5759 55.1083 39.7889C55.386 40.002 55.7563 40.0507 56.0797 39.9167C56.4031 39.7827 56.6304 39.4863 56.6761 39.1393C56.8428 37.8671 56.2056 36.6242 55.0753 36.017C54.9896 35.6741 55.0688 35.3109 55.2895 35.0348C55.511 34.762 55.5695 34.3915 55.4427 34.0638C55.316 33.7361 55.0234 33.5013 54.676 33.4487C54.3285 33.396 53.9795 33.5334 53.7613 33.8088C53.3314 34.3429 53.0933 35.0058 53.0851 35.6913C52.9331 35.7164 52.7833 35.7528 52.6367 35.8C52.3373 35.8988 52.0548 36.0427 51.799 36.227C51.5131 36.4308 51.3582 36.772 51.3929 37.1213C51.4275 37.4707 51.6465 37.7748 51.9668 37.9184C52.2872 38.0621 52.6599 38.0233 52.9438 37.8168H52.9428Z" fill="#2F58FF"/>
<path d="M53.2419 29.8588C53.3591 29.9003 53.4791 29.9334 53.601 29.9579C53.6095 30.0297 53.6192 30.1015 53.6337 30.1732C53.6865 30.4353 53.779 30.6878 53.908 30.922C54.075 31.2321 54.3957 31.4287 54.7478 31.4368C55.1 31.445 55.4294 31.2634 55.6106 30.9613C55.7917 30.6592 55.7968 30.2831 55.6237 29.9763C55.4957 29.7435 55.518 29.4569 55.6805 29.2467C55.843 29.0365 56.1148 28.9427 56.3723 29.008C56.7126 29.0988 57.0755 29 57.3227 28.7491C57.57 28.4981 57.6634 28.1338 57.5675 27.7949C57.4717 27.4559 57.2012 27.1946 56.8592 27.1104C55.8415 26.8494 54.7663 27.2216 54.1277 28.0558C53.9511 28.0536 53.7824 27.9819 53.6582 27.8562C53.4142 27.6027 53.053 27.4996 52.7119 27.586C52.3709 27.6724 52.1024 27.9351 52.0085 28.2741C51.9146 28.6132 52.0097 28.9766 52.2577 29.2261C52.5335 29.5089 52.8701 29.7252 53.2419 29.8588Z" fill="#2F58FF"/>
<path d="M53.4133 51.007C54.3369 51.0059 55.2357 50.7083 55.9775 50.1581C56.54 50.4296 57.1566 50.5704 57.7813 50.5698C58.9086 50.5677 59.9889 50.1174 60.7841 49.3182C61.5793 48.519 62.024 47.4365 62.0204 46.3091V45.3999C63.9803 44.5714 65.2448 42.6402 65.2204 40.5125C65.2264 39.106 64.6755 37.7542 63.688 36.7525C63.797 36.6274 63.8987 36.496 63.9924 36.359C65.2461 34.4701 64.7343 31.9228 62.8482 30.6648C62.7751 30.6159 62.7013 30.5714 62.6258 30.5279C62.9749 28.82 62.4693 27.0493 61.2711 25.7833C60.0729 24.5173 58.3326 23.915 56.6082 24.1697C56.5648 22.1243 54.8875 20.4925 52.8417 20.5054C50.7959 20.5184 49.1393 22.1712 49.1218 24.217V46.7465C49.1387 49.1045 51.0551 51.007 53.4133 51.007ZM51.0817 24.217C51.0948 23.2449 51.8866 22.4638 52.8588 22.4638C53.831 22.4638 54.6228 23.2449 54.6359 24.217C54.6375 24.4773 54.5808 24.7346 54.4701 24.9701C54.377 25.0304 54.288 25.0911 54.1981 25.1576C53.7629 25.4798 53.6714 26.0938 53.9936 26.5289C54.3158 26.9641 54.9298 27.0556 55.3649 26.7334C56.6452 25.7889 58.4097 25.8603 59.6095 26.9051C60.8093 27.9499 61.1225 29.6878 60.363 31.0857C60.1538 30.7561 59.7688 30.5823 59.3832 30.6435C58.9977 30.7047 58.6854 30.9892 58.5886 31.3674C58.4324 31.981 58.5034 32.6305 58.7884 33.1959C58.7552 33.2639 58.7105 33.3257 58.6562 33.3785C58.2741 33.7575 58.2694 34.3738 58.6456 34.7586C59.0218 35.1435 59.638 35.1528 60.0257 34.7794C60.122 34.6842 60.211 34.5816 60.2916 34.4727C60.7664 34.53 61.2132 34.236 61.3485 33.7773C61.4838 33.3186 61.2681 32.8292 60.8382 32.6196C60.7697 32.5863 60.7075 32.5412 60.6546 32.4864C60.6627 32.4914 60.6709 32.4973 60.6789 32.5027C61.0579 32.7224 61.5368 32.6634 61.8511 32.3582C62.3602 32.7312 62.6791 33.3095 62.7226 33.9391C62.7662 34.5687 62.5301 35.1855 62.0773 35.625C61.3912 35.3172 60.6478 35.1583 59.8959 35.1587C59.3549 35.1587 58.9163 35.5973 58.9163 36.1383C58.9163 36.6793 59.3549 37.1179 59.8959 37.1179C61.1144 37.1094 62.244 37.7547 62.8557 38.8086C63.4674 39.8625 63.4674 41.1634 62.8557 42.2173C62.244 43.2712 61.1144 43.9164 59.8959 43.9079C59.3892 43.9082 58.9664 44.2946 58.9207 44.7992C58.8977 44.7614 58.8721 44.7253 58.8443 44.691C58.3254 44.0596 58.3701 43.1376 58.9476 42.5594C59.3251 42.1762 59.323 41.5602 58.9428 41.1797C58.5627 40.7991 57.9468 40.7962 57.5631 41.1732C57.2424 41.4937 56.9861 41.8727 56.8082 42.2898C56.5469 42.3901 56.2637 42.4195 55.9875 42.3749C55.7525 42.3374 55.5292 42.247 55.3344 42.1104C54.8913 41.802 54.2822 41.9103 53.9725 42.3525C53.6628 42.7947 53.7692 43.4041 54.2105 43.7151C54.8065 44.1312 55.5159 44.3544 56.2428 44.3546C56.3571 44.3546 56.4724 44.347 56.5857 44.3359C56.6946 44.9245 56.9517 45.4756 57.3328 45.9373C57.5855 46.2432 57.9978 46.3664 58.377 46.2493C58.7561 46.1322 59.0271 45.7979 59.0634 45.4028C59.2292 45.6896 59.5351 45.8665 59.8663 45.8671C59.9413 45.8671 60.0608 45.8645 60.0608 45.8614V46.3094C60.0677 47.1284 59.6347 47.8882 58.9266 48.2997C58.2184 48.7113 57.3439 48.7113 56.6358 48.2997C55.9276 47.8882 55.4947 47.1284 55.5016 46.3094C55.5016 45.7714 55.0654 45.3352 54.5274 45.3352C53.9893 45.3352 53.5532 45.7714 53.5532 46.3094C53.553 47.2215 53.8469 48.1094 54.3914 48.8412C54.0827 48.9772 53.7491 49.0477 53.4118 49.0482C52.1357 49.0487 51.0968 48.0224 51.0817 46.7465V24.217Z" fill="#2F58FF"/>
<path d="M44.6673 37.6601C44.7773 37.6964 44.8811 37.7493 44.9752 37.8168C45.2592 38.0233 45.6319 38.0621 45.9522 37.9184C46.2726 37.7748 46.4915 37.4707 46.5262 37.1213C46.5609 36.772 46.4059 36.4308 46.12 36.227C45.8642 36.0427 45.5817 35.8988 45.2823 35.8C45.1358 35.7528 44.9859 35.7164 44.834 35.6913C44.8258 35.0058 44.5877 34.3429 44.1578 33.8088C43.9395 33.5334 43.5905 33.396 43.2431 33.4487C42.8957 33.5013 42.6031 33.7361 42.4763 34.0638C42.3496 34.3915 42.408 34.762 42.6296 35.0348C42.8502 35.3109 42.9294 35.6741 42.8438 36.017C41.7134 36.6242 41.0762 37.867 41.243 39.1393C41.2886 39.4863 41.516 39.7827 41.8393 39.9167C42.1627 40.0507 42.533 40.002 42.8108 39.7889C43.0885 39.5759 43.2315 39.2308 43.1858 38.8838C43.1638 38.7146 43.1805 38.5426 43.2348 38.3809C43.4322 37.787 44.0728 37.4647 44.6673 37.6601Z" fill="#2F58FF"/>
<path d="M42.2955 29.9763C42.1225 30.2832 42.1275 30.6593 42.3087 30.9613C42.4898 31.2634 42.8192 31.445 43.1714 31.4368C43.5235 31.4287 43.8442 31.2321 44.0112 30.922C44.1403 30.6877 44.2328 30.4351 44.2855 30.1729C44.2999 30.1012 44.3095 30.0296 44.3182 29.9579C44.8298 29.8556 45.2983 29.6005 45.6617 29.2261C45.9097 28.9766 46.0048 28.6132 45.9109 28.2742C45.817 27.9351 45.5485 27.6724 45.2074 27.586C44.8664 27.4996 44.5052 27.6027 44.2612 27.8562C44.1371 27.982 43.9683 28.0537 43.7916 28.0559C43.1531 27.2216 42.0779 26.8494 41.0602 27.1104C40.7182 27.1946 40.4477 27.456 40.3518 27.7949C40.256 28.1338 40.3494 28.4982 40.5966 28.7491C40.8439 29 41.2067 29.0989 41.5471 29.008C41.8046 28.9429 42.0762 29.0367 42.2386 29.2469C42.4011 29.457 42.4235 29.7435 42.2956 29.9763H42.2955Z" fill="#2F58FF"/>
<path d="M44.5071 51.007C46.8646 51.0066 48.78 49.1039 48.796 46.7464V34.6122C48.796 34.0712 48.3574 33.6326 47.8164 33.6326C47.2754 33.6326 46.8368 34.0712 46.8368 34.6122V46.7464C46.8278 47.5361 46.4191 48.2673 45.7512 48.6887C45.0834 49.1102 44.2475 49.1643 43.5308 48.8326C44.0708 48.1022 44.3619 47.2176 44.361 46.3092C44.361 45.7682 43.9224 45.3296 43.3814 45.3296C42.8404 45.3296 42.4018 45.7682 42.4018 46.3092C42.4117 47.1275 41.9807 47.8879 41.2736 48.2999C40.5665 48.7119 39.6925 48.7119 38.9854 48.2999C38.2783 47.8879 37.8474 47.1275 37.8572 46.3092V45.8612C37.8572 45.8643 37.9767 45.8669 38.0516 45.8669C38.3868 45.8666 38.6972 45.6903 38.8691 45.4026C38.9014 45.797 39.1701 46.1323 39.548 46.2498C39.9259 46.3674 40.3373 46.2436 40.5876 45.9371C40.9681 45.4753 41.2247 44.9241 41.3333 44.3357C41.4476 44.3468 41.5618 44.3544 41.6761 44.3544C41.8663 44.3544 42.0561 44.3391 42.2438 44.3087C42.7708 44.2247 43.2716 44.0216 43.7083 43.7149C43.9961 43.5146 44.1549 43.1757 44.1247 42.8263C44.0944 42.477 43.8797 42.1704 43.5617 42.0226C43.2438 41.8747 42.871 41.9081 42.5844 42.1102C42.153 42.4108 41.6007 42.4781 41.1098 42.2898C40.9319 41.8727 40.6756 41.4937 40.3548 41.1732C39.9712 40.7962 39.3553 40.799 38.9751 41.1796C38.595 41.5602 38.5928 42.1761 38.9703 42.5593C39.5479 43.1375 39.5926 44.0596 39.0737 44.6909C39.0458 44.7252 39.0203 44.7614 38.9973 44.7992C38.9516 44.2946 38.5287 43.9081 38.0221 43.9079C36.8036 43.9163 35.674 43.2711 35.0622 42.2172C34.4505 41.1633 34.4505 39.8624 35.0622 38.8085C35.674 37.7546 36.8036 37.1094 38.0221 37.1179C38.5631 37.1179 39.0017 36.6793 39.0017 36.1383C39.0017 35.5973 38.5631 35.1587 38.0221 35.1587C37.2702 35.1582 36.5267 35.3172 35.8407 35.625C35.388 35.1854 35.1519 34.5686 35.1955 33.9391C35.2391 33.3096 35.5578 32.7312 36.0668 32.3582C36.3812 32.6634 36.86 32.7224 37.2391 32.5027C37.2476 32.4978 37.2554 32.4919 37.2634 32.4863C37.2104 32.5412 37.1483 32.5862 37.0797 32.6196C36.6498 32.8292 36.4341 33.3185 36.5694 33.7772C36.7047 34.236 37.1515 34.5299 37.6263 34.4726C37.707 34.5816 37.7959 34.6841 37.8923 34.7794C38.142 35.0271 38.5053 35.122 38.8442 35.0279C39.1831 34.9339 39.4455 34.6653 39.5318 34.3244C39.6182 33.9835 39.5151 33.6224 39.2618 33.3784C39.2075 33.3257 39.1628 33.2639 39.1295 33.1959C39.4146 32.6305 39.4855 31.981 39.3294 31.3673C39.2326 30.9891 38.9203 30.7045 38.5347 30.6433C38.149 30.5821 37.7639 30.756 37.5548 31.0857C36.7957 29.6879 37.1089 27.9505 38.3082 26.9057C39.5076 25.861 41.2716 25.7891 42.552 26.7327C42.8335 26.9422 43.2054 26.9852 43.5272 26.8455C43.8491 26.7057 44.0715 26.4045 44.1105 26.0559C44.1495 25.7072 43.9991 25.3643 43.7161 25.1569C43.6262 25.0904 43.5333 25.0297 43.4402 24.9693C43.3272 24.7343 43.268 24.4771 43.267 24.2163C43.276 23.6862 43.5201 23.1875 43.9333 22.8552C44.3466 22.523 44.8861 22.3917 45.4058 22.4968C46.25 22.6823 46.8478 23.4354 46.8368 24.2997V27.7551C46.8368 28.2961 47.2754 28.7347 47.8164 28.7347C48.3574 28.7347 48.796 28.2961 48.796 27.7551V24.3322C48.796 22.398 47.3625 20.7183 45.4381 20.5228C44.3982 20.4153 43.361 20.7491 42.5789 21.4427C41.7968 22.1363 41.3415 23.1262 41.3238 24.1714C41.0634 24.1326 40.8006 24.1129 40.5374 24.1123C38.931 24.112 37.4094 24.833 36.3924 26.0764C35.3754 27.3199 34.9705 28.9543 35.2895 30.5286C35.2138 30.5722 35.1385 30.617 35.0654 30.6656C34.0866 31.3159 33.4333 32.3543 33.2707 33.5181C33.1081 34.6819 33.4517 35.8596 34.2147 36.7533C33.2312 37.7565 32.6853 39.1085 32.6964 40.5133C32.6726 42.6411 33.9377 44.572 35.898 45.3998V46.309C35.8925 47.4357 36.3357 48.5182 37.1295 49.3177C37.9234 50.1172 39.0028 50.5678 40.1295 50.5703C40.7582 50.5709 41.3789 50.4294 41.9452 50.1564C42.6862 50.7067 43.5842 51.0048 44.5071 51.007Z" fill="#2F58FF"/>
</svg>
