<svg width="36" height="36" viewBox="0 0 36 36" fill="none" xmlns="http://www.w3.org/2000/svg">
<path d="M30.9825 16.7158H25.8916V21.2976H30.9825V16.7158Z" fill="#484848"/>
<path d="M22.8369 17.2229H5.52783V17.732H22.8369V17.2229Z" fill="#484848"/>
<path d="M22.8369 18.7517H5.52783V19.2608H22.8369V18.7517Z" fill="#484848"/>
<path d="M22.8369 20.2781H5.52783V20.7872H22.8369V20.2781Z" fill="#484848"/>
<path d="M30.9825 23.333H25.8916V27.9148H30.9825V23.333Z" fill="#484848"/>
<path d="M22.8369 23.8428H5.52783V24.3519H22.8369V23.8428Z" fill="#484848"/>
<path d="M22.8369 25.3689H5.52783V25.878H22.8369V25.3689Z" fill="#484848"/>
<path d="M22.8369 26.8977H5.52783V27.4068H22.8369V26.8977Z" fill="#484848"/>
<path d="M30.9824 8.57007H5.52783V14.1701H30.9824V8.57007Z" fill="#484848"/>
<path d="M35.752 0.742188H0.751953V35.7422H35.752V0.742188ZM35.2429 35.2331H1.26104V1.25128H35.2429V35.2331Z" fill="#484848"/>
</svg>
