<svg width="40" height="23" viewBox="0 0 40 23" fill="none" xmlns="http://www.w3.org/2000/svg">
<path d="M20.349 11.8682H22.1745H22.4014C22.4033 11.5665 22.3388 11.2596 22.1999 10.9687C18.8785 4.08582 15.3175 0.816665 11.3121 0.961647C5.07226 1.19324 1.3884 10.0932 0.989225 11.108C0.573579 12.1634 1.09137 13.3538 2.14673 13.769C2.39291 13.8679 2.64757 13.9135 2.898 13.9135C3.71658 13.9135 4.49045 13.4197 4.80865 12.612C5.76139 10.1939 8.64079 5.16801 11.4651 5.06351C13.5749 4.98302 16.0735 7.71555 18.5029 12.7523C18.8559 13.4847 19.5869 13.9088 20.349 13.9107V13.6932V11.8682Z" fill="#484848"/>
<path d="M26.1862 14.377H22.6304V17.9318H26.1862V14.377Z" fill="#484848"/>
<path d="M27.1934 18.8245V20.6678V22.3793H30.7492V21.7152V18.8245H27.1934Z" fill="#484848"/>
<path d="M36.0788 15.4548H32.5239V19.0097H36.0788V15.4548Z" fill="#484848"/>
<path d="M39.3827 10.1562H39.2801H36.6116H35.8269V11.5665V13.7116H39.0881H39.3827V13.0978V10.2626V10.1562Z" fill="#484848"/>
</svg>
