<svg width="34" height="32" viewBox="0 0 34 32" fill="none" xmlns="http://www.w3.org/2000/svg">
<path d="M31.6861 0.813477H2.9227C1.75846 0.813477 0.868164 1.70377 0.868164 2.86801V23.4818C0.868164 24.5776 1.75846 25.5363 2.9227 25.5363H13.8117L12.0996 28.6866H10.6614C9.9081 28.6866 9.36023 29.303 9.36023 29.9878C9.36023 30.7411 9.97659 31.289 10.6614 31.289H23.8104C24.5638 31.289 25.1116 30.6727 25.1116 29.9878C25.1116 29.2345 24.4953 28.6866 23.8104 28.6866H22.3723L20.6601 25.5363H31.6861C32.8504 25.5363 33.7407 24.5776 33.7407 23.4818V2.86801C33.7407 1.70377 32.8504 0.813477 31.6861 0.813477ZM16.0717 23.2764C16.0717 22.5915 16.6196 22.0436 17.3044 22.0436C17.9893 22.0436 18.5371 22.5915 18.5371 23.2764C18.5371 23.9612 17.9893 24.5091 17.3044 24.5091C16.6196 24.5091 16.0717 23.9612 16.0717 23.2764ZM31.0013 20.7424H3.60754V3.55285H31.0013V20.7424Z" fill="#484848"/>
<path d="M12.6475 13.6165L8.26447 11.5619V11.425L12.6475 9.4389V8.00073L6.75781 10.7401V12.3152L12.6475 14.9861V13.6165Z" fill="#484848"/>
<path d="M20.66 6.36133H19.4272L13.9485 17.9352H15.2497L20.66 6.36133Z" fill="#484848"/>
<path d="M27.8518 10.7401L21.9622 8.00073V9.4389L26.3452 11.425V11.5619L21.9622 13.6165V14.9861L27.8518 12.3152V10.7401Z" fill="#484848"/>
</svg>
