<svg width="40" height="26" viewBox="0 0 40 26" fill="none" xmlns="http://www.w3.org/2000/svg">
<path d="M28.0468 8.18717L30.1799 4.49028L24.3592 1.12951C20.5682 -1.05876 15.7121 0.238805 13.5218 4.0334L14.7921 4.76699C15.8016 3.0145 18.0426 2.41418 19.7963 3.42565L21.6985 4.52311L17.1159 12.4609L16.482 12.0959L10.6191 22.2485C10.0126 23.3003 10.3713 24.6455 11.4231 25.2517C12.4772 25.8606 13.8212 25.4991 14.4278 24.4462L20.2883 14.2939L19.6564 13.9277L24.2385 5.98991L28.0468 8.18717Z" fill="#484848"/>
<path d="M8.44393 18.0609C8.25907 18.0609 8.07264 18.014 7.90302 17.9167L0.92275 13.8864C0.585852 13.6922 0.379883 13.3338 0.379883 12.9457C0.379883 12.5576 0.585852 12.1992 0.92275 12.0053L7.90302 7.97546C8.42049 7.67569 9.08451 7.85352 9.38506 8.37294C9.68639 8.89236 9.50817 9.55599 8.98836 9.85576L3.63669 12.9457L8.98836 16.0356C9.50817 16.3346 9.686 16.9982 9.38506 17.5176C9.18378 17.8667 8.81874 18.0609 8.44393 18.0609Z" fill="#484848"/>
<path d="M31.3967 19.1404C31.0219 19.1404 30.6569 18.9462 30.4556 18.5976C30.1566 18.0782 30.3345 17.4141 30.8543 17.1155L36.2063 14.0256L30.8543 10.9361C30.3348 10.6359 30.157 9.97229 30.4556 9.45326C30.7569 8.93384 31.4202 8.75602 31.9396 9.05578L38.9203 13.0857C39.2552 13.2799 39.4631 13.6383 39.4631 14.026C39.4631 14.4137 39.2556 14.7725 38.9203 14.966L31.9396 18.9962C31.7684 19.0939 31.5816 19.1404 31.3967 19.1404Z" fill="#484848"/>
</svg>
