<svg width="35" height="34" viewBox="0 0 35 34" fill="none" xmlns="http://www.w3.org/2000/svg">
<path d="M20.1541 13.8689V24.9643H3.51125V2.77395H11.8327V0H3.51125C1.98593 0 0.737305 1.24863 0.737305 2.77395V30.5122C0.737305 32.0371 1.98593 33.2857 3.51125 33.2857H20.1541C21.679 33.2857 22.9276 32.0371 22.9276 30.5117V13.8689H20.1541ZM13.2194 30.5117H10.4455C9.67909 30.5117 9.05872 29.8918 9.05872 29.125C9.05872 28.3582 9.67909 27.7382 10.4455 27.7382H13.2194C13.9863 27.7382 14.6062 28.3582 14.6062 29.125C14.6062 29.8918 13.9863 30.5117 13.2194 30.5117Z" fill="#484848"/>
<path d="M33.6149 4.56674L29.7408 0.693115L28.27 2.16559L31.6548 5.54742L28.2717 8.93049L29.7425 10.4013L33.6161 6.52768C34.1574 5.98596 34.1574 5.1068 33.6149 4.56674Z" fill="#484848"/>
<path d="M20.3584 2.16393L18.8876 0.693115L15.0127 4.56674C14.471 5.10846 14.471 5.98887 15.0127 6.52768L18.8876 10.4013L20.3584 8.93049L16.9737 5.54742L20.3584 2.16393Z" fill="#484848"/>
<path d="M23.9607 0H26.056L24.6701 11.0954H22.5735L23.9607 0Z" fill="#484848"/>
</svg>
