<svg width="29" height="45" viewBox="0 0 29 45" fill="none" xmlns="http://www.w3.org/2000/svg">
<path d="M25.5144 2.7059C25.9778 2.7059 26.4501 3.10846 26.4501 3.50366V42.1643C26.4501 42.5595 25.9778 42.9621 25.5144 42.9621H3.6985C3.23506 42.9621 2.76279 42.5595 2.76279 42.1643V3.50366C2.76279 3.10846 3.23506 2.7059 3.6985 2.7059H25.5144ZM25.5144 0.742188H3.6985C2.18055 0.742188 0.799072 1.98424 0.799072 3.50366V42.1643C0.799072 43.6823 2.18055 44.9258 3.6985 44.9258H25.5144C27.0343 44.9258 28.4138 43.6823 28.4138 42.1643V3.50366C28.4138 1.98424 27.0338 0.742188 25.5144 0.742188Z" fill="#484848"/>
<path d="M14.6064 41.3597C13.1179 41.3597 11.9062 40.1481 11.9062 38.6596C11.9062 37.1711 13.1179 35.9595 14.6064 35.9595C16.0949 35.9595 17.3065 37.1711 17.3065 38.6596C17.3065 40.1481 16.0949 41.3597 14.6064 41.3597ZM14.6064 37.4323C13.9294 37.4323 13.379 37.9831 13.379 38.6596C13.379 39.3361 13.9294 39.8869 14.6064 39.8869C15.2833 39.8869 15.8337 39.3361 15.8337 38.6596C15.8337 37.9831 15.2833 37.4323 14.6064 37.4323Z" fill="#484848"/>
<path d="M16.5701 6.14124H12.6426C12.2362 6.14124 11.9062 5.81183 11.9062 5.40485C11.9062 4.99787 12.2362 4.66846 12.6426 4.66846H16.5701C16.9766 4.66846 17.3065 4.99787 17.3065 5.40485C17.3065 5.81183 16.9766 6.14124 16.5701 6.14124Z" fill="#484848"/>
<path d="M9.07546 18.3265L7.93208 17.1924C7.71951 16.9793 7.37586 16.9857 7.1628 17.1978C6.94974 17.4099 6.94925 17.7575 7.16133 17.97L8.46425 19.1949C8.56636 19.297 8.70481 19.273 8.84963 19.273H9.90955C9.1545 20.22 8.65964 21.3565 8.47603 22.4925H6.62818C6.32773 22.4925 6.08423 22.76 6.08423 23.0605C6.08423 23.3609 6.32773 23.6285 6.62818 23.6285H8.39601C8.40534 24.5755 8.64491 25.522 9.06269 26.2795H8.66848C8.52414 26.2795 8.38521 26.362 8.2831 26.4646L6.98066 27.7842C6.76858 27.9968 6.76908 28.3473 6.98165 28.5594C7.08769 28.6654 7.22662 28.7214 7.36555 28.7214C7.50498 28.7214 7.6444 28.6688 7.75044 28.5623L8.89431 27.416H9.77258C10.8428 28.7415 12.5233 29.6026 14.2273 29.6988V18.3265H9.07546Z" fill="#484848"/>
<path d="M22.5847 22.4913H20.6985C20.4634 21.3553 19.859 20.2188 19.1501 19.2718H20.3632C20.5076 19.2718 20.6465 19.2978 20.7486 19.1952L22.0515 17.9306C22.2636 17.7175 22.2631 17.394 22.0501 17.1819C21.837 16.9698 21.4934 16.9678 21.2808 17.1809L20.1374 18.3253H14.9851V29.6947C16.6896 29.5832 18.3396 28.5518 19.4098 27.4153H20.3186L21.4619 28.5631C21.568 28.6701 21.7074 28.7231 21.8473 28.7231C21.9862 28.7231 22.1252 28.6706 22.2312 28.5646C22.4438 28.3525 22.4443 28.0083 22.2322 27.7963L20.9298 26.4644C20.8277 26.3618 20.6892 26.2793 20.5444 26.2793H20.1276C20.5508 25.5218 20.7933 24.5748 20.8031 23.6283H22.5847C22.8851 23.6283 23.1286 23.3607 23.1286 23.0603C23.1286 22.7598 22.8851 22.4913 22.5847 22.4913Z" fill="#484848"/>
<path d="M11.0874 17.5692H18.1244C18.1244 16.2437 17.467 15.2466 16.4793 14.6236L17.1896 13.9279C17.4022 13.7154 17.4022 13.3786 17.1896 13.166C16.9771 12.9535 16.6329 12.9574 16.4204 13.17L15.3933 14.1989C15.14 14.141 14.8774 14.1081 14.6059 14.1081C14.3344 14.1081 14.0722 14.142 13.8184 14.1999L12.7909 13.1729C12.5784 12.9603 12.2342 12.9603 12.0216 13.1729C11.8091 13.3855 11.8091 13.7301 12.0216 13.9422L12.732 14.6236C11.7448 15.2466 11.0874 16.2437 11.0874 17.5692Z" fill="#484848"/>
</svg>
